<?xml version="1.0" encoding="UTF-8"?>
<svg width="100" height="100" viewBox="0 0 100 100" xmlns="http://www.w3.org/2000/svg">
  <!-- Background Circle -->
  <circle cx="50" cy="50" r="50" fill="#3498db"/>
  
  <!-- Face -->
  <circle cx="50" cy="45" r="25" fill="#f5d0a9"/>
  
  <!-- Hair -->
  <path d="M25 35 Q50 10 75 35 L75 25 Q50 0 25 25 Z" fill="#6c4836"/>
  <path d="M25 35 Q30 25 35 30 Q40 35 45 30 Q50 25 55 30 Q60 35 65 30 Q70 25 75 35 Q75 40 70 45 Q65 50 60 45 Q55 40 50 45 Q45 50 40 45 Q35 40 30 45 Q25 50 25 35 Z" fill="#6c4836"/>
  
  <!-- Eyes -->
  <ellipse cx="40" cy="40" rx="3" ry="4" fill="#333"/>
  <ellipse cx="60" cy="40" rx="3" ry="4" fill="#333"/>
  
  <!-- Eyebrows -->
  <path d="M35 35 Q40 32 45 35" fill="none" stroke="#6c4836" stroke-width="2"/>
  <path d="M55 35 Q60 32 65 35" fill="none" stroke="#6c4836" stroke-width="2"/>
  
  <!-- Nose -->
  <path d="M50 42 Q53 48 50 52" fill="none" stroke="#e59866" stroke-width="2"/>
  
  <!-- Mouth -->
  <path d="M40 60 Q50 65 60 60" fill="none" stroke="#c0392b" stroke-width="2"/>
  
  <!-- Beard -->
  <path d="M35 55 Q40 70 50 75 Q60 70 65 55" fill="none" stroke="#6c4836" stroke-width="3"/>
  <path d="M40 60 Q50 80 60 60" fill="none" stroke="#6c4836" stroke-width="2"/>
  
  <!-- Glasses -->
  <rect x="35" y="38" width="10" height="8" rx="2" ry="2" fill="none" stroke="#333" stroke-width="1.5"/>
  <rect x="55" y="38" width="10" height="8" rx="2" ry="2" fill="none" stroke="#333" stroke-width="1.5"/>
  <line x1="45" y1="42" x2="55" y2="42" stroke="#333" stroke-width="1.5"/>
  <line x1="33" y1="42" x2="35" y2="42" stroke="#333" stroke-width="1.5"/>
  <line x1="65" y1="42" x2="67" y2="42" stroke="#333" stroke-width="1.5"/>
  
  <!-- Shirt Collar -->
  <path d="M30 85 L40 75 L50 80 L60 75 L70 85" fill="#2980b9"/>
  
  <!-- Name Tag -->
  <rect x="25" y="85" width="50" height="15" rx="2" ry="2" fill="#2c3e50"/>
  <text x="50" y="97" font-family="Arial, sans-serif" font-size="10" font-weight="bold" fill="white" text-anchor="middle">MICHAEL</text>
</svg>