<?xml version="1.0" encoding="UTF-8"?>
<svg width="100" height="100" viewBox="0 0 100 100" xmlns="http://www.w3.org/2000/svg">
  <!-- Background Circle -->
  <circle cx="50" cy="50" r="50" fill="#34495e"/>
  
  <!-- Face -->
  <circle cx="50" cy="45" r="25" fill="#f5d0a9"/>
  
  <!-- Hair -->
  <path d="M25 35 Q50 15 75 35 L75 25 Q50 5 25 25 Z" fill="#4a4a4a"/>
  <path d="M25 35 Q30 25 35 30 L25 30 Z" fill="#4a4a4a"/>
  <path d="M75 35 Q70 25 65 30 L75 30 Z" fill="#4a4a4a"/>
  
  <!-- Ears -->
  <ellipse cx="25" cy="45" rx="5" ry="8" fill="#f5d0a9"/>
  <ellipse cx="75" cy="45" rx="5" ry="8" fill="#f5d0a9"/>
  
  <!-- Eyes -->
  <ellipse cx="40" cy="40" rx="3" ry="2" fill="#3498db"/>
  <ellipse cx="60" cy="40" rx="3" ry="2" fill="#3498db"/>
  
  <!-- Eyebrows -->
  <path d="M37 36 Q40 34 43 36" fill="none" stroke="#4a4a4a" stroke-width="1.5"/>
  <path d="M57 36 Q60 34 63 36" fill="none" stroke="#4a4a4a" stroke-width="1.5"/>
  
  <!-- Nose -->
  <path d="M50 42 Q53 48 50 50" fill="none" stroke="#d35400" stroke-width="1"/>
  
  <!-- Mouth -->
  <path d="M42 55 Q50 58 58 55" fill="none" stroke="#c0392b" stroke-width="1.5"/>
  
  <!-- Glasses -->
  <rect x="36" y="38" width="8" height="5" rx="2" ry="2" fill="none" stroke="#7f8c8d" stroke-width="1"/>
  <rect x="56" y="38" width="8" height="5" rx="2" ry="2" fill="none" stroke="#7f8c8d" stroke-width="1"/>
  <path d="M44 40 L56 40" fill="none" stroke="#7f8c8d" stroke-width="1"/>
  <path d="M36 40 L32 38" fill="none" stroke="#7f8c8d" stroke-width="1"/>
  <path d="M64 40 L68 38" fill="none" stroke="#7f8c8d" stroke-width="1"/>
  
  <!-- Beard -->
  <path d="M35 55 Q50 70 65 55 Q60 65 50 68 Q40 65 35 55" fill="#4a4a4a"/>
  
  <!-- Suit -->
  <path d="M25 75 L35 65 L45 75 L50 70 L55 75 L65 65 L75 75 L65 100 L35 100 Z" fill="#2c3e50"/>
  
  <!-- Shirt -->
  <path d="M45 75 L50 70 L55 75 L50 100 Z" fill="#ecf0f1"/>
  
  <!-- Tie -->
  <path d="M50 75 L53 85 L50 100 L47 85 Z" fill="#e74c3c"/>
</svg>