<svg width="800" height="450" xmlns="http://www.w3.org/2000/svg">
  <rect width="800" height="450" fill="#f0f4f8"/>
  
  <!-- Background Elements -->
  <rect x="50" y="50" width="700" height="350" rx="10" fill="#ffffff" stroke="#e2e8f0" stroke-width="2"/>
  
  <!-- Commercial Building (Left Side) -->
  <rect x="150" y="100" width="200" height="200" fill="#e2e8f0" stroke="#94a3b8" stroke-width="2"/>
  
  <!-- Commercial Building Windows -->
  <rect x="170" y="120" width="40" height="30" fill="#dbeafe" stroke="#94a3b8" stroke-width="1"/>
  <rect x="230" y="120" width="40" height="30" fill="#dbeafe" stroke="#94a3b8" stroke-width="1"/>
  <rect x="290" y="120" width="40" height="30" fill="#dbeafe" stroke="#94a3b8" stroke-width="1"/>
  
  <rect x="170" y="170" width="40" height="30" fill="#dbeafe" stroke="#94a3b8" stroke-width="1"/>
  <rect x="230" y="170" width="40" height="30" fill="#dbeafe" stroke="#94a3b8" stroke-width="1"/>
  <rect x="290" y="170" width="40" height="30" fill="#dbeafe" stroke="#94a3b8" stroke-width="1"/>
  
  <rect x="170" y="220" width="40" height="30" fill="#dbeafe" stroke="#94a3b8" stroke-width="1"/>
  <rect x="230" y="220" width="40" height="30" fill="#dbeafe" stroke="#94a3b8" stroke-width="1"/>
  <rect x="290" y="220" width="40" height="30" fill="#dbeafe" stroke="#94a3b8" stroke-width="1"/>
  
  <!-- Commercial Building Door -->
  <rect x="230" y="270" width="40" height="30" fill="#475569" stroke="#1e293b" stroke-width="1"/>
  
  <!-- Commercial Building Sign -->
  <rect x="180" y="80" width="140" height="20" fill="#2563eb" opacity="0.8"/>
  <text x="250" y="95" font-family="Arial, sans-serif" font-size="12" font-weight="bold" text-anchor="middle" fill="#ffffff">COMMERCIAL</text>
  
  <!-- Residential House (Right Side) -->
  <rect x="450" y="170" width="200" height="130" fill="#e2e8f0" stroke="#94a3b8" stroke-width="2"/>
  <polygon points="450,170 550,100 650,170" fill="#cbd5e1" stroke="#94a3b8" stroke-width="2"/>
  
  <!-- Residential House Windows -->
  <rect x="480" y="190" width="40" height="40" fill="#dbeafe" stroke="#94a3b8" stroke-width="1"/>
  <line x1="500" y1="190" x2="500" y2="230" stroke="#94a3b8" stroke-width="1"/>
  <line x1="480" y1="210" x2="520" y2="210" stroke="#94a3b8" stroke-width="1"/>
  
  <rect x="580" y="190" width="40" height="40" fill="#dbeafe" stroke="#94a3b8" stroke-width="1"/>
  <line x1="600" y1="190" x2="600" y2="230" stroke="#94a3b8" stroke-width="1"/>
  <line x1="580" y1="210" x2="620" y2="210" stroke="#94a3b8" stroke-width="1"/>
  
  <!-- Residential House Door -->
  <rect x="530" y="250" width="40" height="50" fill="#475569" stroke="#1e293b" stroke-width="1"/>
  <circle cx="560" cy="275" r="3" fill="#f8fafc"/>
  
  <!-- Residential House Sign -->
  <rect x="480" y="140" width="140" height="20" fill="#f59e0b" opacity="0.8"/>
  <text x="550" y="155" font-family="Arial, sans-serif" font-size="12" font-weight="bold" text-anchor="middle" fill="#ffffff">RESIDENTIAL</text>
  
  <!-- VS Text -->
  <circle cx="400" cy="200" r="40" fill="#f1f5f9" stroke="#94a3b8" stroke-width="2"/>
  <text x="400" y="210" font-family="Arial, sans-serif" font-size="24" font-weight="bold" text-anchor="middle" fill="#1e293b">VS</text>
  
  <!-- Yield Indicators -->
  <rect x="150" y="320" width="200" height="30" rx="5" fill="#dbeafe" stroke="#2563eb" stroke-width="1"/>
  <text x="250" y="340" font-family="Arial, sans-serif" font-size="14" font-weight="bold" text-anchor="middle" fill="#1e293b">Higher Yield: 7-12%</text>
  
  <rect x="450" y="320" width="200" height="30" rx="5" fill="#dbeafe" stroke="#2563eb" stroke-width="1"/>
  <text x="550" y="340" font-family="Arial, sans-serif" font-size="14" font-weight="bold" text-anchor="middle" fill="#1e293b">Lower Yield: 4-8%</text>
  
  <!-- Growth Indicators -->
  <rect x="150" y="360" width="200" height="30" rx="5" fill="#fef3c7" stroke="#f59e0b" stroke-width="1"/>
  <text x="250" y="380" font-family="Arial, sans-serif" font-size="14" font-weight="bold" text-anchor="middle" fill="#1e293b">Lower Growth: ~2%</text>
  
  <rect x="450" y="360" width="200" height="30" rx="5" fill="#fef3c7" stroke="#f59e0b" stroke-width="1"/>
  <text x="550" y="380" font-family="Arial, sans-serif" font-size="14" font-weight="bold" text-anchor="middle" fill="#1e293b">Higher Growth: ~4%</text>
  
  <!-- Title -->
  <text x="400" y="80" font-family="Arial, sans-serif" font-size="24" font-weight="bold" text-anchor="middle" fill="#1e293b">Commercial vs Residential</text>
  
  <!-- Auction Insights Branding -->
  <text x="700" y="380" font-family="Arial, sans-serif" font-size="14" text-anchor="end" fill="#94a3b8">© Auction Insights</text>
</svg>