<svg width="300" height="300" xmlns="http://www.w3.org/2000/svg">
  <rect width="300" height="300" fill="#f0f4f8"/>
  <rect x="20" y="20" width="260" height="260" rx="10" fill="#ffffff" stroke="#2563eb" stroke-width="2"/>
  
  <!-- Clipboard -->
  <rect x="75" y="60" width="80" height="100" rx="3" fill="#f8fafc" stroke="#94a3b8" stroke-width="2"/>
  <rect x="75" y="60" width="80" height="15" rx="3" fill="#cbd5e1" stroke="#94a3b8" stroke-width="2"/>
  <circle cx="115" cy="67" r="5" fill="#f8fafc" stroke="#94a3b8" stroke-width="1"/>
  
  <!-- Checklist Items -->
  <rect x="85" y="85" width="8" height="8" fill="#ffffff" stroke="#2563eb" stroke-width="1"/>
  <line x1="87" y1="89" x2="89" y2="91" stroke="#2563eb" stroke-width="1"/>
  <line x1="89" y1="91" x2="91" y2="87" stroke="#2563eb" stroke-width="1"/>
  <line x1="95" y1="89" x2="135" y2="89" stroke="#94a3b8" stroke-width="1"/>
  
  <rect x="85" y="100" width="8" height="8" fill="#ffffff" stroke="#2563eb" stroke-width="1"/>
  <line x1="87" y1="104" x2="89" y2="106" stroke="#2563eb" stroke-width="1"/>
  <line x1="89" y1="106" x2="91" y2="102" stroke="#2563eb" stroke-width="1"/>
  <line x1="95" y1="104" x2="135" y2="104" stroke="#94a3b8" stroke-width="1"/>
  
  <rect x="85" y="115" width="8" height="8" fill="#ffffff" stroke="#2563eb" stroke-width="1"/>
  <line x1="95" y1="119" x2="135" y2="119" stroke="#94a3b8" stroke-width="1"/>
  
  <rect x="85" y="130" width="8" height="8" fill="#ffffff" stroke="#2563eb" stroke-width="1"/>
  <line x1="95" y1="134" x2="135" y2="134" stroke="#94a3b8" stroke-width="1"/>
  
  <!-- Magnifying Glass -->
  <circle cx="180" cy="100" r="30" fill="none" stroke="#2563eb" stroke-width="2"/>
  <line x1="200" y1="120" x2="220" y2="140" stroke="#2563eb" stroke-width="3"/>
  
  <!-- House in Magnifying Glass -->
  <rect x="170" y="95" width="20" height="15" fill="#cbd5e1"/>
  <polygon points="170,95 180,85 190,95" fill="#94a3b8"/>
  
  <!-- Title -->
  <text x="150" y="180" font-family="Arial, sans-serif" font-size="14" font-weight="bold" text-anchor="middle" fill="#1e293b">Due Diligence Checklist</text>
  <text x="150" y="200" font-family="Arial, sans-serif" font-size="10" text-anchor="middle" fill="#64748b">For Auction Properties</text>
  
  <!-- Auction Insights Watermark -->
  <text x="260" y="280" font-family="Arial, sans-serif" font-size="8" text-anchor="end" fill="#94a3b8">© Auction Insights</text>
</svg>