<?xml version="1.0" encoding="UTF-8"?>
<svg width="800" height="400" viewBox="0 0 800 400" xmlns="http://www.w3.org/2000/svg">
  <!-- Background -->
  <rect width="800" height="400" fill="#f8f9fa"/>
  
  <!-- Title -->
  <text x="400" y="40" font-family="Arial, sans-serif" font-size="24" font-weight="bold" fill="#333" text-anchor="middle">Auction Property Financing Options</text>
  
  <!-- House with Money Elements -->
  <rect x="350" y="100" width="100" height="100" fill="#fff" stroke="#333" stroke-width="3"/>
  <polygon points="350,100 400,70 450,100" fill="#e74c3c" stroke="#333" stroke-width="3"/>
  <rect x="385" y="150" width="30" height="50" fill="#3498db" stroke="#333" stroke-width="2"/>
  <circle cx="405" cy="175" r="3" fill="#333"/>
  
  <!-- Cash Stack -->
  <rect x="150" y="150" width="80" height="10" fill="#27ae60" stroke="#333" stroke-width="1"/>
  <rect x="150" y="140" width="80" height="10" fill="#27ae60" stroke="#333" stroke-width="1"/>
  <rect x="150" y="130" width="80" height="10" fill="#27ae60" stroke="#333" stroke-width="1"/>
  <rect x="150" y="120" width="80" height="10" fill="#27ae60" stroke="#333" stroke-width="1"/>
  <text x="190" y="135" font-family="Arial, sans-serif" font-size="12" font-weight="bold" fill="white" text-anchor="middle">CASH</text>
  
  <!-- Mortgage Document -->
  <rect x="570" y="120" width="80" height="100" fill="#ecf0f1" stroke="#333" stroke-width="2"/>
  <text x="610" y="145" font-family="Arial, sans-serif" font-size="12" font-weight="bold" fill="#333" text-anchor="middle">MORTGAGE</text>
  <line x1="580" y1="160" x2="640" y2="160" stroke="#333" stroke-width="1"/>
  <line x1="580" y1="170" x2="640" y2="170" stroke="#333" stroke-width="1"/>
  <line x1="580" y1="180" x2="640" y2="180" stroke="#333" stroke-width="1"/>
  <line x1="580" y1="190" x2="640" y2="190" stroke="#333" stroke-width="1"/>
  <line x1="580" y1="200" x2="640" y2="200" stroke="#333" stroke-width="1"/>
  
  <!-- Bridge Loan -->
  <path d="M 150 250 C 150 220 250 220 250 250" fill="none" stroke="#f39c12" stroke-width="8"/>
  <rect x="130" y="250" width="140" height="20" fill="#f39c12" stroke="#333" stroke-width="1"/>
  <text x="200" y="265" font-family="Arial, sans-serif" font-size="14" font-weight="bold" fill="white" text-anchor="middle">BRIDGING LOAN</text>
  
  <!-- Development Finance -->
  <rect x="570" y="250" width="100" height="20" fill="#9b59b6" stroke="#333" stroke-width="1"/>
  <rect x="570" y="270" width="100" height="20" fill="#9b59b6" stroke="#333" stroke-width="1"/>
  <rect x="570" y="290" width="100" height="20" fill="#9b59b6" stroke="#333" stroke-width="1"/>
  <text x="620" y="275" font-family="Arial, sans-serif" font-size="12" font-weight="bold" fill="white" text-anchor="middle">DEVELOPMENT</text>
  <text x="620" y="295" font-family="Arial, sans-serif" font-size="12" font-weight="bold" fill="white" text-anchor="middle">FINANCE</text>
  
  <!-- Auction Finance -->
  <circle cx="400" cy="280" r="50" fill="#3498db" fill-opacity="0.2" stroke="#3498db" stroke-width="2"/>
  <text x="400" y="270" font-family="Arial, sans-serif" font-size="14" font-weight="bold" fill="#333" text-anchor="middle">AUCTION</text>
  <text x="400" y="290" font-family="Arial, sans-serif" font-size="14" font-weight="bold" fill="#333" text-anchor="middle">FINANCE</text>
  
  <!-- Connecting Lines -->
  <line x1="190" y1="160" x2="350" y2="150" stroke="#27ae60" stroke-width="2" stroke-dasharray="5,3"/>
  <line x1="570" y1="170" x2="450" y2="150" stroke="#e74c3c" stroke-width="2" stroke-dasharray="5,3"/>
  <line x1="200" y1="250" x2="350" y2="200" stroke="#f39c12" stroke-width="2" stroke-dasharray="5,3"/>
  <line x1="570" y1="280" x2="450" y2="200" stroke="#9b59b6" stroke-width="2" stroke-dasharray="5,3"/>
  <line x1="400" y1="230" x2="400" y2="200" stroke="#3498db" stroke-width="2" stroke-dasharray="5,3"/>
  
  <!-- Finance Types -->
  <rect x="100" y="320" width="120" height="60" fill="#27ae60" rx="10" ry="10"/>
  <text x="160" y="345" font-family="Arial, sans-serif" font-size="14" font-weight="bold" fill="white" text-anchor="middle">Cash</text>
  <text x="160" y="365" font-family="Arial, sans-serif" font-size="12" fill="white" text-anchor="middle">Fastest option</text>
  
  <rect x="240" y="320" width="120" height="60" fill="#f39c12" rx="10" ry="10"/>
  <text x="300" y="345" font-family="Arial, sans-serif" font-size="14" font-weight="bold" fill="white" text-anchor="middle">Bridging</text>
  <text x="300" y="365" font-family="Arial, sans-serif" font-size="12" fill="white" text-anchor="middle">Short-term solution</text>
  
  <rect x="380" y="320" width="120" height="60" fill="#3498db" rx="10" ry="10"/>
  <text x="440" y="345" font-family="Arial, sans-serif" font-size="14" font-weight="bold" fill="white" text-anchor="middle">Auction</text>
  <text x="440" y="365" font-family="Arial, sans-serif" font-size="12" fill="white" text-anchor="middle">Specialist lenders</text>
  
  <rect x="520" y="320" width="120" height="60" fill="#e74c3c" rx="10" ry="10"/>
  <text x="580" y="345" font-family="Arial, sans-serif" font-size="14" font-weight="bold" fill="white" text-anchor="middle">Mortgage</text>
  <text x="580" y="365" font-family="Arial, sans-serif" font-size="12" fill="white" text-anchor="middle">Traditional option</text>
  
  <rect x="660" y="320" width="120" height="60" fill="#9b59b6" rx="10" ry="10"/>
  <text x="720" y="345" font-family="Arial, sans-serif" font-size="14" font-weight="bold" fill="white" text-anchor="middle">Development</text>
  <text x="720" y="365" font-family="Arial, sans-serif" font-size="12" fill="white" text-anchor="middle">For major projects</text>
</svg>