<svg width="300" height="300" xmlns="http://www.w3.org/2000/svg">
  <rect width="300" height="300" fill="#f0f4f8"/>
  <rect x="20" y="20" width="260" height="260" rx="10" fill="#ffffff" stroke="#2563eb" stroke-width="2"/>
  
  <!-- House with Pound Sign -->
  <rect x="75" y="80" width="80" height="60" fill="#e2e8f0" stroke="#94a3b8" stroke-width="1"/>
  <polygon points="75,80 115,50 155,80" fill="#cbd5e1" stroke="#94a3b8" stroke-width="1"/>
  <rect x="105" y="100" width="20" height="40" fill="#f8fafc" stroke="#94a3b8" stroke-width="1"/>
  
  <!-- Pound Sign -->
  <circle cx="200" cy="90" r="30" fill="#2563eb" opacity="0.1"/>
  <path d="M190,80 L210,80 M190,90 L210,90 M190,100 L210,100 M200,70 L200,110" stroke="#2563eb" stroke-width="3" stroke-linecap="round"/>
  
  <!-- Financing Options -->
  <rect x="75" y="160" width="50" height="20" rx="3" fill="#dbeafe" stroke="#2563eb" stroke-width="1"/>
  <text x="100" y="174" font-family="Arial, sans-serif" font-size="8" font-weight="bold" text-anchor="middle" fill="#1e293b">Bridging</text>
  
  <rect x="135" y="160" width="50" height="20" rx="3" fill="#dbeafe" stroke="#2563eb" stroke-width="1"/>
  <text x="160" y="174" font-family="Arial, sans-serif" font-size="8" font-weight="bold" text-anchor="middle" fill="#1e293b">Mortgage</text>
  
  <rect x="195" y="160" width="50" height="20" rx="3" fill="#dbeafe" stroke="#2563eb" stroke-width="1"/>
  <text x="220" y="174" font-family="Arial, sans-serif" font-size="8" font-weight="bold" text-anchor="middle" fill="#1e293b">Cash</text>
  
  <!-- Title -->
  <text x="150" y="210" font-family="Arial, sans-serif" font-size="14" font-weight="bold" text-anchor="middle" fill="#1e293b">Financing Auction</text>
  <text x="150" y="230" font-family="Arial, sans-serif" font-size="14" font-weight="bold" text-anchor="middle" fill="#1e293b">Purchases</text>
  
  <!-- Auction Insights Watermark -->
  <text x="260" y="280" font-family="Arial, sans-serif" font-size="8" text-anchor="end" fill="#94a3b8">© Auction Insights</text>
</svg>