<?xml version="1.0" encoding="UTF-8"?>
<svg width="800" height="400" viewBox="0 0 800 400" xmlns="http://www.w3.org/2000/svg">
  <!-- Background -->
  <rect width="800" height="400" fill="#f8f9fa"/>
  
  <!-- Title -->
  <text x="400" y="40" font-family="Arial, sans-serif" font-size="24" font-weight="bold" fill="#333" text-anchor="middle">HMO Conversion: Auction Properties to Multi-Occupancy</text>
  
  <!-- House Outline -->
  <rect x="100" y="100" width="600" height="250" fill="#fff" stroke="#333" stroke-width="3"/>
  
  <!-- Roof -->
  <polygon points="100,100 400,50 700,100" fill="#e74c3c" stroke="#333" stroke-width="3"/>
  
  <!-- Main Door -->
  <rect x="380" y="280" width="40" height="70" fill="#3498db" stroke="#333" stroke-width="2"/>
  <circle cx="410" cy="315" r="3" fill="#333"/>
  
  <!-- Windows -->
  <rect x="150" y="130" width="40" height="40" fill="#f1c40f" stroke="#333" stroke-width="2"/>
  <line x1="170" y1="130" x2="170" y2="170" stroke="#333" stroke-width="2"/>
  <line x1="150" y1="150" x2="190" y2="150" stroke="#333" stroke-width="2"/>
  
  <rect x="230" y="130" width="40" height="40" fill="#f1c40f" stroke="#333" stroke-width="2"/>
  <line x1="250" y1="130" x2="250" y2="170" stroke="#333" stroke-width="2"/>
  <line x1="230" y1="150" x2="270" y2="150" stroke="#333" stroke-width="2"/>
  
  <rect x="530" y="130" width="40" height="40" fill="#f1c40f" stroke="#333" stroke-width="2"/>
  <line x1="550" y1="130" x2="550" y2="170" stroke="#333" stroke-width="2"/>
  <line x1="530" y1="150" x2="570" y2="150" stroke="#333" stroke-width="2"/>
  
  <rect x="610" y="130" width="40" height="40" fill="#f1c40f" stroke="#333" stroke-width="2"/>
  <line x1="630" y1="130" x2="630" y2="170" stroke="#333" stroke-width="2"/>
  <line x1="610" y1="150" x2="650" y2="150" stroke="#333" stroke-width="2"/>
  
  <rect x="150" y="200" width="40" height="40" fill="#f1c40f" stroke="#333" stroke-width="2"/>
  <line x1="170" y1="200" x2="170" y2="240" stroke="#333" stroke-width="2"/>
  <line x1="150" y1="220" x2="190" y2="220" stroke="#333" stroke-width="2"/>
  
  <rect x="230" y="200" width="40" height="40" fill="#f1c40f" stroke="#333" stroke-width="2"/>
  <line x1="250" y1="200" x2="250" y2="240" stroke="#333" stroke-width="2"/>
  <line x1="230" y1="220" x2="270" y2="220" stroke="#333" stroke-width="2"/>
  
  <rect x="530" y="200" width="40" height="40" fill="#f1c40f" stroke="#333" stroke-width="2"/>
  <line x1="550" y1="200" x2="550" y2="240" stroke="#333" stroke-width="2"/>
  <line x1="530" y1="220" x2="570" y2="220" stroke="#333" stroke-width="2"/>
  
  <rect x="610" y="200" width="40" height="40" fill="#f1c40f" stroke="#333" stroke-width="2"/>
  <line x1="630" y1="200" x2="630" y2="240" stroke="#333" stroke-width="2"/>
  <line x1="610" y1="220" x2="650" y2="220" stroke="#333" stroke-width="2"/>
  
  <!-- Interior Walls -->
  <line x1="400" y1="100" x2="400" y2="350" stroke="#333" stroke-width="3" stroke-dasharray="10,5"/>
  <line x1="100" y1="180" x2="700" y2="180" stroke="#333" stroke-width="2" stroke-dasharray="10,5"/>
  <line x1="100" y1="260" x2="700" y2="260" stroke="#333" stroke-width="2" stroke-dasharray="10,5"/>
  <line x1="310" y1="100" x2="310" y2="350" stroke="#333" stroke-width="2" stroke-dasharray="10,5"/>
  <line x1="490" y1="100" x2="490" y2="350" stroke="#333" stroke-width="2" stroke-dasharray="10,5"/>
  
  <!-- Room Labels -->
  <rect x="130" y="120" width="60" height="25" fill="#3498db" rx="5" ry="5"/>
  <text x="160" y="137" font-family="Arial, sans-serif" font-size="12" fill="white" text-anchor="middle">Room 1</text>
  
  <rect x="220" y="120" width="60" height="25" fill="#3498db" rx="5" ry="5"/>
  <text x="250" y="137" font-family="Arial, sans-serif" font-size="12" fill="white" text-anchor="middle">Room 2</text>
  
  <rect x="130" y="200" width="60" height="25" fill="#3498db" rx="5" ry="5"/>
  <text x="160" y="217" font-family="Arial, sans-serif" font-size="12" fill="white" text-anchor="middle">Room 3</text>
  
  <rect x="220" y="200" width="60" height="25" fill="#3498db" rx="5" ry="5"/>
  <text x="250" y="217" font-family="Arial, sans-serif" font-size="12" fill="white" text-anchor="middle">Room 4</text>
  
  <rect x="520" y="120" width="60" height="25" fill="#3498db" rx="5" ry="5"/>
  <text x="550" y="137" font-family="Arial, sans-serif" font-size="12" fill="white" text-anchor="middle">Room 5</text>
  
  <rect x="610" y="120" width="60" height="25" fill="#3498db" rx="5" ry="5"/>
  <text x="640" y="137" font-family="Arial, sans-serif" font-size="12" fill="white" text-anchor="middle">Room 6</text>
  
  <rect x="520" y="200" width="60" height="25" fill="#3498db" rx="5" ry="5"/>
  <text x="550" y="217" font-family="Arial, sans-serif" font-size="12" fill="white" text-anchor="middle">Room 7</text>
  
  <rect x="610" y="200" width="60" height="25" fill="#3498db" rx="5" ry="5"/>
  <text x="640" y="217" font-family="Arial, sans-serif" font-size="12" fill="white" text-anchor="middle">Room 8</text>
  
  <!-- Common Areas -->
  <rect x="330" y="140" width="140" height="30" fill="#2ecc71" rx="5" ry="5"/>
  <text x="400" y="160" font-family="Arial, sans-serif" font-size="14" fill="white" text-anchor="middle">Shared Kitchen</text>
  
  <rect x="330" y="210" width="140" height="30" fill="#2ecc71" rx="5" ry="5"/>
  <text x="400" y="230" font-family="Arial, sans-serif" font-size="14" fill="white" text-anchor="middle">Shared Lounge</text>
  
  <rect x="330" y="280" width="140" height="30" fill="#2ecc71" rx="5" ry="5"/>
  <text x="400" y="300" font-family="Arial, sans-serif" font-size="14" fill="white" text-anchor="middle">Entrance Hall</text>
  
  <!-- Fire Safety Elements -->
  <circle cx="170" cy="170" r="5" fill="#e74c3c"/>
  <circle cx="250" cy="170" r="5" fill="#e74c3c"/>
  <circle cx="170" cy="240" r="5" fill="#e74c3c"/>
  <circle cx="250" cy="240" r="5" fill="#e74c3c"/>
  <circle cx="550" cy="170" r="5" fill="#e74c3c"/>
  <circle cx="630" cy="170" r="5" fill="#e74c3c"/>
  <circle cx="550" cy="240" r="5" fill="#e74c3c"/>
  <circle cx="630" cy="240" r="5" fill="#e74c3c"/>
  <circle cx="400" cy="160" r="5" fill="#e74c3c"/>
  <circle cx="400" cy="230" r="5" fill="#e74c3c"/>
  <circle cx="400" cy="300" r="5" fill="#e74c3c"/>
  
  <!-- Legend -->
  <rect x="100" y="360" width="15" height="15" fill="#3498db"/>
  <text x="125" y="373" font-family="Arial, sans-serif" font-size="14" fill="#333">En-suite Bedrooms</text>
  
  <rect x="250" y="360" width="15" height="15" fill="#2ecc71"/>
  <text x="275" y="373" font-family="Arial, sans-serif" font-size="14" fill="#333">Shared Facilities</text>
  
  <circle cx="400" cy="368" r="5" fill="#e74c3c"/>
  <text x="415" y="373" font-family="Arial, sans-serif" font-size="14" fill="#333">Fire Safety Equipment</text>
  
  <rect x="550" y="360" width="15" height="15" fill="none" stroke="#333" stroke-width="2" stroke-dasharray="5,3"/>
  <text x="575" y="373" font-family="Arial, sans-serif" font-size="14" fill="#333">Room Partitions</text>
</svg>