<?xml version="1.0" encoding="UTF-8"?>
<svg width="800" height="500" viewBox="0 0 800 500" xmlns="http://www.w3.org/2000/svg">
  <!-- Background -->
  <rect width="800" height="500" fill="#f8f9fa"/>
  
  <!-- Title -->
  <text x="400" y="40" font-family="Arial, sans-serif" font-size="24" font-weight="bold" fill="#333" text-anchor="middle">Auction Property Insurance Comparison</text>
  <text x="400" y="70" font-family="Arial, sans-serif" font-size="16" fill="#666" text-anchor="middle">Coverage options for different property scenarios</text>
  
  <!-- Table Header -->
  <rect x="100" y="100" width="200" height="50" fill="#3498db" stroke="#333" stroke-width="1"/>
  <rect x="300" y="100" width="125" height="50" fill="#3498db" stroke="#333" stroke-width="1"/>
  <rect x="425" y="100" width="125" height="50" fill="#3498db" stroke="#333" stroke-width="1"/>
  <rect x="550" y="100" width="125" height="50" fill="#3498db" stroke="#333" stroke-width="1"/>
  <rect x="675" y="100" width="125" height="50" fill="#3498db" stroke="#333" stroke-width="1"/>
  
  <text x="200" y="130" font-family="Arial, sans-serif" font-size="16" font-weight="bold" fill="white" text-anchor="middle">Insurance Type</text>
  <text x="362.5" y="130" font-family="Arial, sans-serif" font-size="16" font-weight="bold" fill="white" text-anchor="middle">Vacant</text>
  <text x="487.5" y="130" font-family="Arial, sans-serif" font-size="16" font-weight="bold" fill="white" text-anchor="middle">Under</text>
  <text x="487.5" y="150" font-family="Arial, sans-serif" font-size="14" font-weight="bold" fill="white" text-anchor="middle">Renovation</text>
  <text x="612.5" y="130" font-family="Arial, sans-serif" font-size="16" font-weight="bold" fill="white" text-anchor="middle">Buy-to-Let</text>
  <text x="737.5" y="130" font-family="Arial, sans-serif" font-size="16" font-weight="bold" fill="white" text-anchor="middle">Flip</text>
  <text x="737.5" y="150" font-family="Arial, sans-serif" font-size="14" font-weight="bold" fill="white" text-anchor="middle">Project</text>
  
  <!-- Row 1: Standard Buildings Insurance -->
  <rect x="100" y="150" width="200" height="60" fill="#ecf0f1" stroke="#333" stroke-width="1"/>
  <rect x="300" y="150" width="125" height="60" fill="white" stroke="#333" stroke-width="1"/>
  <rect x="425" y="150" width="125" height="60" fill="white" stroke="#333" stroke-width="1"/>
  <rect x="550" y="150" width="125" height="60" fill="white" stroke="#333" stroke-width="1"/>
  <rect x="675" y="150" width="125" height="60" fill="white" stroke="#333" stroke-width="1"/>
  
  <text x="200" y="180" font-family="Arial, sans-serif" font-size="14" font-weight="bold" fill="#333" text-anchor="middle">Standard Buildings</text>
  <text x="200" y="200" font-family="Arial, sans-serif" font-size="14" font-weight="bold" fill="#333" text-anchor="middle">Insurance</text>
  
  <circle cx="362.5" cy="180" r="15" fill="#e74c3c"/>
  <text x="362.5" y="185" font-family="Arial, sans-serif" font-size="16" font-weight="bold" fill="white" text-anchor="middle">✗</text>
  
  <circle cx="487.5" cy="180" r="15" fill="#e74c3c"/>
  <text x="487.5" y="185" font-family="Arial, sans-serif" font-size="16" font-weight="bold" fill="white" text-anchor="middle">✗</text>
  
  <circle cx="612.5" cy="180" r="15" fill="#2ecc71"/>
  <text x="612.5" y="185" font-family="Arial, sans-serif" font-size="16" font-weight="bold" fill="white" text-anchor="middle">✓</text>
  
  <circle cx="737.5" cy="180" r="15" fill="#f39c12"/>
  <text x="737.5" y="185" font-family="Arial, sans-serif" font-size="16" font-weight="bold" fill="white" text-anchor="middle">!</text>
  
  <!-- Row 2: Vacant Property Insurance -->
  <rect x="100" y="210" width="200" height="60" fill="#ecf0f1" stroke="#333" stroke-width="1"/>
  <rect x="300" y="210" width="125" height="60" fill="white" stroke="#333" stroke-width="1"/>
  <rect x="425" y="210" width="125" height="60" fill="white" stroke="#333" stroke-width="1"/>
  <rect x="550" y="210" width="125" height="60" fill="white" stroke="#333" stroke-width="1"/>
  <rect x="675" y="210" width="125" height="60" fill="white" stroke="#333" stroke-width="1"/>
  
  <text x="200" y="240" font-family="Arial, sans-serif" font-size="14" font-weight="bold" fill="#333" text-anchor="middle">Vacant Property</text>
  <text x="200" y="260" font-family="Arial, sans-serif" font-size="14" font-weight="bold" fill="#333" text-anchor="middle">Insurance</text>
  
  <circle cx="362.5" cy="240" r="15" fill="#2ecc71"/>
  <text x="362.5" y="245" font-family="Arial, sans-serif" font-size="16" font-weight="bold" fill="white" text-anchor="middle">✓</text>
  
  <circle cx="487.5" cy="240" r="15" fill="#f39c12"/>
  <text x="487.5" y="245" font-family="Arial, sans-serif" font-size="16" font-weight="bold" fill="white" text-anchor="middle">!</text>
  
  <circle cx="612.5" cy="240" r="15" fill="#e74c3c"/>
  <text x="612.5" y="245" font-family="Arial, sans-serif" font-size="16" font-weight="bold" fill="white" text-anchor="middle">✗</text>
  
  <circle cx="737.5" cy="240" r="15" fill="#f39c12"/>
  <text x="737.5" y="245" font-family="Arial, sans-serif" font-size="16" font-weight="bold" fill="white" text-anchor="middle">!</text>
  
  <!-- Row 3: Renovation Insurance -->
  <rect x="100" y="270" width="200" height="60" fill="#ecf0f1" stroke="#333" stroke-width="1"/>
  <rect x="300" y="270" width="125" height="60" fill="white" stroke="#333" stroke-width="1"/>
  <rect x="425" y="270" width="125" height="60" fill="white" stroke="#333" stroke-width="1"/>
  <rect x="550" y="270" width="125" height="60" fill="white" stroke="#333" stroke-width="1"/>
  <rect x="675" y="270" width="125" height="60" fill="white" stroke="#333" stroke-width="1"/>
  
  <text x="200" y="300" font-family="Arial, sans-serif" font-size="14" font-weight="bold" fill="#333" text-anchor="middle">Renovation/Project</text>
  <text x="200" y="320" font-family="Arial, sans-serif" font-size="14" font-weight="bold" fill="#333" text-anchor="middle">Insurance</text>
  
  <circle cx="362.5" cy="300" r="15" fill="#e74c3c"/>
  <text x="362.5" y="305" font-family="Arial, sans-serif" font-size="16" font-weight="bold" fill="white" text-anchor="middle">✗</text>
  
  <circle cx="487.5" cy="300" r="15" fill="#2ecc71"/>
  <text x="487.5" y="305" font-family="Arial, sans-serif" font-size="16" font-weight="bold" fill="white" text-anchor="middle">✓</text>
  
  <circle cx="612.5" cy="300" r="15" fill="#e74c3c"/>
  <text x="612.5" y="305" font-family="Arial, sans-serif" font-size="16" font-weight="bold" fill="white" text-anchor="middle">✗</text>
  
  <circle cx="737.5" cy="300" r="15" fill="#2ecc71"/>
  <text x="737.5" y="305" font-family="Arial, sans-serif" font-size="16" font-weight="bold" fill="white" text-anchor="middle">✓</text>
  
  <!-- Row 4: Landlord Insurance -->
  <rect x="100" y="330" width="200" height="60" fill="#ecf0f1" stroke="#333" stroke-width="1"/>
  <rect x="300" y="330" width="125" height="60" fill="white" stroke="#333" stroke-width="1"/>
  <rect x="425" y="330" width="125" height="60" fill="white" stroke="#333" stroke-width="1"/>
  <rect x="550" y="330" width="125" height="60" fill="white" stroke="#333" stroke-width="1"/>
  <rect x="675" y="330" width="125" height="60" fill="white" stroke="#333" stroke-width="1"/>
  
  <text x="200" y="360" font-family="Arial, sans-serif" font-size="14" font-weight="bold" fill="#333" text-anchor="middle">Landlord</text>
  <text x="200" y="380" font-family="Arial, sans-serif" font-size="14" font-weight="bold" fill="#333" text-anchor="middle">Insurance</text>
  
  <circle cx="362.5" cy="360" r="15" fill="#e74c3c"/>
  <text x="362.5" y="365" font-family="Arial, sans-serif" font-size="16" font-weight="bold" fill="white" text-anchor="middle">✗</text>
  
  <circle cx="487.5" cy="360" r="15" fill="#e74c3c"/>
  <text x="487.5" y="365" font-family="Arial, sans-serif" font-size="16" font-weight="bold" fill="white" text-anchor="middle">✗</text>
  
  <circle cx="612.5" cy="360" r="15" fill="#2ecc71"/>
  <text x="612.5" y="365" font-family="Arial, sans-serif" font-size="16" font-weight="bold" fill="white" text-anchor="middle">✓</text>
  
  <circle cx="737.5" cy="360" r="15" fill="#e74c3c"/>
  <text x="737.5" y="365" font-family="Arial, sans-serif" font-size="16" font-weight="bold" fill="white" text-anchor="middle">✗</text>
  
  <!-- Row 5: Site Insurance -->
  <rect x="100" y="390" width="200" height="60" fill="#ecf0f1" stroke="#333" stroke-width="1"/>
  <rect x="300" y="390" width="125" height="60" fill="white" stroke="#333" stroke-width="1"/>
  <rect x="425" y="390" width="125" height="60" fill="white" stroke="#333" stroke-width="1"/>
  <rect x="550" y="390" width="125" height="60" fill="white" stroke="#333" stroke-width="1"/>
  <rect x="675" y="390" width="125" height="60" fill="white" stroke="#333" stroke-width="1"/>
  
  <text x="200" y="420" font-family="Arial, sans-serif" font-size="14" font-weight="bold" fill="#333" text-anchor="middle">Site Insurance/</text>
  <text x="200" y="440" font-family="Arial, sans-serif" font-size="14" font-weight="bold" fill="#333" text-anchor="middle">Contractors All Risk</text>
  
  <circle cx="362.5" cy="420" r="15" fill="#e74c3c"/>
  <text x="362.5" y="425" font-family="Arial, sans-serif" font-size="16" font-weight="bold" fill="white" text-anchor="middle">✗</text>
  
  <circle cx="487.5" cy="420" r="15" fill="#2ecc71"/>
  <text x="487.5" y="425" font-family="Arial, sans-serif" font-size="16" font-weight="bold" fill="white" text-anchor="middle">✓</text>
  
  <circle cx="612.5" cy="420" r="15" fill="#e74c3c"/>
  <text x="612.5" y="425" font-family="Arial, sans-serif" font-size="16" font-weight="bold" fill="white" text-anchor="middle">✗</text>
  
  <circle cx="737.5" cy="420" r="15" fill="#2ecc71"/>
  <text x="737.5" y="425" font-family="Arial, sans-serif" font-size="16" font-weight="bold" fill="white" text-anchor="middle">✓</text>
  
  <!-- Legend -->
  <rect x="100" y="460" width="600" height="30" fill="white" stroke="#dee2e6" rx="5" ry="5"/>
  
  <circle cx="130" cy="475" r="10" fill="#2ecc71"/>
  <text x="130" y="479" font-family="Arial, sans-serif" font-size="12" font-weight="bold" fill="white" text-anchor="middle">✓</text>
  <text x="150" y="479" font-family="Arial, sans-serif" font-size="12" fill="#333">Recommended</text>
  
  <circle cx="250" cy="475" r="10" fill="#f39c12"/>
  <text x="250" y="479" font-family="Arial, sans-serif" font-size="12" font-weight="bold" fill="white" text-anchor="middle">!</text>
  <text x="270" y="479" font-family="Arial, sans-serif" font-size="12" fill="#333">May be suitable with conditions</text>
  
  <circle cx="450" cy="475" r="10" fill="#e74c3c"/>
  <text x="450" y="479" font-family="Arial, sans-serif" font-size="12" font-weight="bold" fill="white" text-anchor="middle">✗</text>
  <text x="470" y="479" font-family="Arial, sans-serif" font-size="12" fill="#333">Not suitable/Won't cover</text>
  
  <text x="650" y="479" font-family="Arial, sans-serif" font-size="10" fill="#666">Always check policy details</text>
</svg>