<?xml version="1.0" encoding="UTF-8"?>
<svg width="800" height="400" viewBox="0 0 800 400" xmlns="http://www.w3.org/2000/svg">
  <!-- Background -->
  <rect width="800" height="400" fill="#f8f9fa"/>
  
  <!-- Title -->
  <text x="400" y="40" font-family="Arial, sans-serif" font-size="24" font-weight="bold" fill="#333" text-anchor="middle">Auction Property Investment Strategies</text>
  
  <!-- Strategy 1: Buy-to-Let -->
  <rect x="50" y="80" width="220" height="140" fill="#fff" stroke="#333" stroke-width="2" rx="10" ry="10"/>
  <rect x="50" y="80" width="220" height="30" fill="#3498db" stroke="#333" stroke-width="2" rx="10" ry="10"/>
  <text x="160" y="100" font-family="Arial, sans-serif" font-size="16" font-weight="bold" fill="white" text-anchor="middle">BUY-TO-LET</text>
  
  <!-- House Icon -->
  <rect x="70" y="120" width="60" height="50" fill="#ecf0f1" stroke="#333" stroke-width="1"/>
  <polygon points="70,120 100,90 130,120" fill="#e74c3c" stroke="#333" stroke-width="1"/>
  <rect x="85" y="140" width="15" height="30" fill="#3498db" stroke="#333" stroke-width="1"/>
  <rect x="95" y="130" width="10" height="10" fill="#f1c40f" stroke="#333" stroke-width="1"/>
  
  <!-- Pound Signs -->
  <text x="150" y="130" font-family="Arial, sans-serif" font-size="20" font-weight="bold" fill="#27ae60">£</text>
  <text x="170" y="130" font-family="Arial, sans-serif" font-size="20" font-weight="bold" fill="#27ae60">£</text>
  <text x="190" y="130" font-family="Arial, sans-serif" font-size="20" font-weight="bold" fill="#27ae60">£</text>
  
  <!-- Description -->
  <text x="160" y="160" font-family="Arial, sans-serif" font-size="12" fill="#333" text-anchor="middle">Long-term rental income</text>
  <text x="160" y="175" font-family="Arial, sans-serif" font-size="12" fill="#333" text-anchor="middle">+ capital appreciation</text>
  <text x="160" y="190" font-family="Arial, sans-serif" font-size="12" fill="#333" text-anchor="middle">Yield: 5-8%</text>
  <text x="160" y="205" font-family="Arial, sans-serif" font-size="12" fill="#333" text-anchor="middle">Timeframe: 5+ years</text>
  
  <!-- Strategy 2: Flip -->
  <rect x="290" y="80" width="220" height="140" fill="#fff" stroke="#333" stroke-width="2" rx="10" ry="10"/>
  <rect x="290" y="80" width="220" height="30" fill="#e74c3c" stroke="#333" stroke-width="2" rx="10" ry="10"/>
  <text x="400" y="100" font-family="Arial, sans-serif" font-size="16" font-weight="bold" fill="white" text-anchor="middle">FLIP</text>
  
  <!-- Before/After Houses -->
  <rect x="310" y="120" width="40" height="30" fill="#ecf0f1" stroke="#333" stroke-width="1"/>
  <polygon points="310,120 330,100 350,120" fill="#95a5a6" stroke="#333" stroke-width="1"/>
  
  <rect x="370" y="120" width="40" height="30" fill="#ecf0f1" stroke="#333" stroke-width="1"/>
  <polygon points="370,120 390,100 410,120" fill="#e74c3c" stroke="#333" stroke-width="1"/>
  
  <!-- Arrow -->
  <line x1="355" y1="135" x2="365" y2="135" stroke="#333" stroke-width="2"/>
  <polygon points="365,130 375,135 365,140" fill="#333"/>
  
  <!-- Tools -->
  <rect x="420" y="120" width="20" height="5" fill="#7f8c8d"/>
  <rect x="425" y="125" width="10" height="15" fill="#7f8c8d"/>
  <rect x="450" y="120" width="10" height="20" fill="#7f8c8d"/>
  <rect x="445" y="120" width="20" height="5" fill="#7f8c8d"/>
  
  <!-- Description -->
  <text x="400" y="160" font-family="Arial, sans-serif" font-size="12" fill="#333" text-anchor="middle">Buy, renovate, sell quickly</text>
  <text x="400" y="175" font-family="Arial, sans-serif" font-size="12" fill="#333" text-anchor="middle">for profit</text>
  <text x="400" y="190" font-family="Arial, sans-serif" font-size="12" fill="#333" text-anchor="middle">ROI: 15-25%</text>
  <text x="400" y="205" font-family="Arial, sans-serif" font-size="12" fill="#333" text-anchor="middle">Timeframe: 3-9 months</text>
  
  <!-- Strategy 3: Development -->
  <rect x="530" y="80" width="220" height="140" fill="#fff" stroke="#333" stroke-width="2" rx="10" ry="10"/>
  <rect x="530" y="80" width="220" height="30" fill="#9b59b6" stroke="#333" stroke-width="2" rx="10" ry="10"/>
  <text x="640" y="100" font-family="Arial, sans-serif" font-size="16" font-weight="bold" fill="white" text-anchor="middle">DEVELOPMENT</text>
  
  <!-- Building -->
  <rect x="550" y="120" width="60" height="50" fill="#ecf0f1" stroke="#333" stroke-width="1"/>
  <rect x="560" y="130" width="10" height="10" fill="#f1c40f" stroke="#333" stroke-width="1"/>
  <rect x="580" y="130" width="10" height="10" fill="#f1c40f" stroke="#333" stroke-width="1"/>
  <rect x="560" y="150" width="10" height="10" fill="#f1c40f" stroke="#333" stroke-width="1"/>
  <rect x="580" y="150" width="10" height="10" fill="#f1c40f" stroke="#333" stroke-width="1"/>
  
  <!-- Blueprint -->
  <rect x="630" y="120" width="40" height="50" fill="#3498db" stroke="#333" stroke-width="1"/>
  <line x1="630" y1="130" x2="670" y2="130" stroke="white" stroke-width="1"/>
  <line x1="630" y1="140" x2="670" y2="140" stroke="white" stroke-width="1"/>
  <line x1="630" y1="150" x2="670" y2="150" stroke="white" stroke-width="1"/>
  <line x1="630" y1="160" x2="670" y2="160" stroke="white" stroke-width="1"/>
  <line x1="640" y1="120" x2="640" y2="170" stroke="white" stroke-width="1"/>
  <line x1="650" y1="120" x2="650" y2="170" stroke="white" stroke-width="1"/>
  <line x1="660" y1="120" x2="660" y2="170" stroke="white" stroke-width="1"/>
  
  <!-- Description -->
  <text x="640" y="180" font-family="Arial, sans-serif" font-size="12" fill="#333" text-anchor="middle">Major conversion or new build</text>
  <text x="640" y="195" font-family="Arial, sans-serif" font-size="12" fill="#333" text-anchor="middle">ROI: 20-40%</text>
  <text x="640" y="210" font-family="Arial, sans-serif" font-size="12" fill="#333" text-anchor="middle">Timeframe: 12-24 months</text>
  
  <!-- Strategy 4: HMO -->
  <rect x="50" y="240" width="220" height="140" fill="#fff" stroke="#333" stroke-width="2" rx="10" ry="10"/>
  <rect x="50" y="240" width="220" height="30" fill="#2ecc71" stroke="#333" stroke-width="2" rx="10" ry="10"/>
  <text x="160" y="260" font-family="Arial, sans-serif" font-size="16" font-weight="bold" fill="white" text-anchor="middle">HMO</text>
  
  <!-- House with Multiple Rooms -->
  <rect x="70" y="280" width="60" height="50" fill="#ecf0f1" stroke="#333" stroke-width="1"/>
  <polygon points="70,280 100,260 130,280" fill="#e74c3c" stroke="#333" stroke-width="1"/>
  <line x1="85" y1="280" x2="85" y2="330" stroke="#333" stroke-width="1"/>
  <line x1="115" y1="280" x2="115" y2="330" stroke="#333" stroke-width="1"/>
  <line x1="70" y1="305" x2="130" y2="305" stroke="#333" stroke-width="1"/>
  
  <!-- People Icons -->
  <circle cx="150" cy="290" r="5" fill="#333"/>
  <rect x="145" y="295" width="10" height="15" fill="#333"/>
  
  <circle cx="170" cy="290" r="5" fill="#333"/>
  <rect x="165" y="295" width="10" height="15" fill="#333"/>
  
  <circle cx="190" cy="290" r="5" fill="#333"/>
  <rect x="185" y="295" width="10" height="15" fill="#333"/>
  
  <circle cx="210" cy="290" r="5" fill="#333"/>
  <rect x="205" y="295" width="10" height="15" fill="#333"/>
  
  <!-- Description -->
  <text x="160" y="320" font-family="Arial, sans-serif" font-size="12" fill="#333" text-anchor="middle">Multi-room letting to</text>
  <text x="160" y="335" font-family="Arial, sans-serif" font-size="12" fill="#333" text-anchor="middle">unrelated tenants</text>
  <text x="160" y="350" font-family="Arial, sans-serif" font-size="12" fill="#333" text-anchor="middle">Yield: 10-15%</text>
  <text x="160" y="365" font-family="Arial, sans-serif" font-size="12" fill="#333" text-anchor="middle">Timeframe: 5+ years</text>
  
  <!-- Strategy 5: Commercial Conversion -->
  <rect x="290" y="240" width="220" height="140" fill="#fff" stroke="#333" stroke-width="2" rx="10" ry="10"/>
  <rect x="290" y="240" width="220" height="30" fill="#f39c12" stroke="#333" stroke-width="2" rx="10" ry="10"/>
  <text x="400" y="260" font-family="Arial, sans-serif" font-size="16" font-weight="bold" fill="white" text-anchor="middle">COMMERCIAL CONVERSION</text>
  
  <!-- Shop to Flats -->
  <rect x="310" y="280" width="60" height="50" fill="#ecf0f1" stroke="#333" stroke-width="1"/>
  <rect x="320" y="310" width="40" height="20" fill="#f39c12" stroke="#333" stroke-width="1"/>
  <text x="340" y="325" font-family="Arial, sans-serif" font-size="10" fill="white" text-anchor="middle">SHOP</text>
  
  <rect x="400" y="280" width="60" height="50" fill="#ecf0f1" stroke="#333" stroke-width="1"/>
  <line x1="400" y1="305" x2="460" y2="305" stroke="#333" stroke-width="1"/>
  <line x1="430" y1="280" x2="430" y2="330" stroke="#333" stroke-width="1"/>
  
  <!-- Arrow -->
  <line x1="375" y1="305" x2="385" y2="305" stroke="#333" stroke-width="2"/>
  <polygon points="385,300 395,305 385,310" fill="#333"/>
  
  <!-- Description -->
  <text x="400" y="340" font-family="Arial, sans-serif" font-size="12" fill="#333" text-anchor="middle">Converting non-residential</text>
  <text x="400" y="355" font-family="Arial, sans-serif" font-size="12" fill="#333" text-anchor="middle">to residential use</text>
  <text x="400" y="370" font-family="Arial, sans-serif" font-size="12" fill="#333" text-anchor="middle">ROI: 25-50%</text>
  
  <!-- Strategy 6: Portfolio Building -->
  <rect x="530" y="240" width="220" height="140" fill="#fff" stroke="#333" stroke-width="2" rx="10" ry="10"/>
  <rect x="530" y="240" width="220" height="30" fill="#34495e" stroke="#333" stroke-width="2" rx="10" ry="10"/>
  <text x="640" y="260" font-family="Arial, sans-serif" font-size="16" font-weight="bold" fill="white" text-anchor="middle">PORTFOLIO BUILDING</text>
  
  <!-- Multiple Houses -->
  <rect x="550" y="280" width="30" height="25" fill="#ecf0f1" stroke="#333" stroke-width="1"/>
  <polygon points="550,280 565,265 580,280" fill="#e74c3c" stroke="#333" stroke-width="1"/>
  
  <rect x="590" y="280" width="30" height="25" fill="#ecf0f1" stroke="#333" stroke-width="1"/>
  <polygon points="590,280 605,265 620,280" fill="#e74c3c" stroke="#333" stroke-width="1"/>
  
  <rect x="630" y="280" width="30" height="25" fill="#ecf0f1" stroke="#333" stroke-width="1"/>
  <polygon points="630,280 645,265 660,280" fill="#e74c3c" stroke="#333" stroke-width="1"/>
  
  <rect x="670" y="280" width="30" height="25" fill="#ecf0f1" stroke="#333" stroke-width="1"/>
  <polygon points="670,280 685,265 700,280" fill="#e74c3c" stroke="#333" stroke-width="1"/>
  
  <!-- Growth Chart -->
  <line x1="550" y1="330" x2="700" y2="330" stroke="#333" stroke-width="1"/>
  <line x1="550" y1="330" x2="550" y2="310" stroke="#333" stroke-width="1"/>
  <polyline points="550,325 580,320 610,315 640,305 670,295 700,285" fill="none" stroke="#27ae60" stroke-width="2"/>
  <circle cx="580" cy="320" r="3" fill="#27ae60"/>
  <circle cx="610" cy="315" r="3" fill="#27ae60"/>
  <circle cx="640" cy="305" r="3" fill="#27ae60"/>
  <circle cx="670" cy="295" r="3" fill="#27ae60"/>
  <circle cx="700" cy="285" r="3" fill="#27ae60"/>
  
  <!-- Description -->
  <text x="640" y="345" font-family="Arial, sans-serif" font-size="12" fill="#333" text-anchor="middle">Systematic acquisition of</text>
  <text x="640" y="360" font-family="Arial, sans-serif" font-size="12" fill="#333" text-anchor="middle">multiple properties</text>
  <text x="640" y="375" font-family="Arial, sans-serif" font-size="12" fill="#333" text-anchor="middle">Timeframe: 10+ years</text>
</svg>