<?xml version="1.0" encoding="UTF-8"?>
<svg width="800" height="400" viewBox="0 0 800 400" xmlns="http://www.w3.org/2000/svg">
  <!-- Background -->
  <rect width="800" height="400" fill="#f8f9fa"/>
  
  <!-- Title -->
  <text x="400" y="40" font-family="Arial, sans-serif" font-size="24" font-weight="bold" fill="#333" text-anchor="middle">Leeds Yield Comparison</text>
  <text x="400" y="70" font-family="Arial, sans-serif" font-size="16" fill="#666" text-anchor="middle">Average gross yields by property type and area (2025)</text>
  
  <!-- Chart Area -->
  <rect x="100" y="100" width="600" height="220" fill="white" stroke="#dee2e6"/>
  
  <!-- Y-axis -->
  <line x1="100" y1="100" x2="100" y2="320" stroke="#adb5bd" stroke-width="1"/>
  <text x="95" y="100" font-family="Arial, sans-serif" font-size="12" fill="#666" text-anchor="end">12%</text>
  <text x="95" y="144" font-family="Arial, sans-serif" font-size="12" fill="#666" text-anchor="end">10%</text>
  <text x="95" y="188" font-family="Arial, sans-serif" font-size="12" fill="#666" text-anchor="end">8%</text>
  <text x="95" y="232" font-family="Arial, sans-serif" font-size="12" fill="#666" text-anchor="end">6%</text>
  <text x="95" y="276" font-family="Arial, sans-serif" font-size="12" fill="#666" text-anchor="end">4%</text>
  <text x="95" y="320" font-family="Arial, sans-serif" font-size="12" fill="#666" text-anchor="end">2%</text>
  
  <!-- X-axis -->
  <line x1="100" y1="320" x2="700" y2="320" stroke="#adb5bd" stroke-width="1"/>
  
  <!-- Grid lines -->
  <line x1="100" y1="100" x2="700" y2="100" stroke="#e9ecef" stroke-width="1"/>
  <line x1="100" y1="144" x2="700" y2="144" stroke="#e9ecef" stroke-width="1"/>
  <line x1="100" y1="188" x2="700" y2="188" stroke="#e9ecef" stroke-width="1"/>
  <line x1="100" y1="232" x2="700" y2="232" stroke="#e9ecef" stroke-width="1"/>
  <line x1="100" y1="276" x2="700" y2="276" stroke="#e9ecef" stroke-width="1"/>
  
  <!-- South Bank -->
  <text x="175" y="340" font-family="Arial, sans-serif" font-size="14" fill="#333" text-anchor="middle">South Bank</text>
  
  <!-- Residential -->
  <rect x="130" y="210" width="30" height="110" fill="#3498db" rx="2" ry="2"/>
  <text x="145" y="205" font-family="Arial, sans-serif" font-size="10" fill="#333" text-anchor="middle">7.0%</text>
  
  <!-- Commercial -->
  <rect x="165" y="188" width="30" height="132" fill="#e74c3c" rx="2" ry="2"/>
  <text x="180" y="183" font-family="Arial, sans-serif" font-size="10" fill="#333" text-anchor="middle">8.0%</text>
  
  <!-- Holbeck Urban Village -->
  <text x="350" y="340" font-family="Arial, sans-serif" font-size="14" fill="#333" text-anchor="middle">Holbeck Urban Village</text>
  
  <!-- Residential -->
  <rect x="305" y="199" width="30" height="121" fill="#3498db" rx="2" ry="2"/>
  <text x="320" y="194" font-family="Arial, sans-serif" font-size="10" fill="#333" text-anchor="middle">7.5%</text>
  
  <!-- Commercial -->
  <rect x="340" y="177" width="30" height="143" fill="#e74c3c" rx="2" ry="2"/>
  <text x="355" y="172" font-family="Arial, sans-serif" font-size="10" fill="#333" text-anchor="middle">8.7%</text>
  
  <!-- Headingley and Hyde Park -->
  <text x="525" y="340" font-family="Arial, sans-serif" font-size="14" fill="#333" text-anchor="middle">Headingley &amp; Hyde Park</text>
  
  <!-- Residential -->
  <rect x="480" y="188" width="30" height="132" fill="#3498db" rx="2" ry="2"/>
  <text x="495" y="183" font-family="Arial, sans-serif" font-size="10" fill="#333" text-anchor="middle">8.0%</text>
  
  <!-- HMO -->
  <rect x="515" y="144" width="30" height="176" fill="#2ecc71" rx="2" ry="2"/>
  <text x="530" y="139" font-family="Arial, sans-serif" font-size="10" fill="#333" text-anchor="middle">10.6%</text>
  
  <!-- City Center -->
  <text x="650" y="340" font-family="Arial, sans-serif" font-size="14" fill="#333" text-anchor="middle">City Center</text>
  
  <!-- Residential -->
  <rect x="620" y="221" width="30" height="99" fill="#3498db" rx="2" ry="2"/>
  <text x="635" y="216" font-family="Arial, sans-serif" font-size="10" fill="#333" text-anchor="middle">6.0%</text>
  
  <!-- Office -->
  <rect x="655" y="210" width="30" height="110" fill="#9b59b6" rx="2" ry="2"/>
  <text x="670" y="205" font-family="Arial, sans-serif" font-size="10" fill="#333" text-anchor="middle">6.7%</text>
  
  <!-- Legend -->
  <rect x="550" y="120" width="140" height="100" fill="white" rx="5" ry="5" stroke="#dee2e6"/>
  <text x="620" y="140" font-family="Arial, sans-serif" font-size="14" font-weight="bold" fill="#333" text-anchor="middle">Property Type</text>
  
  <rect x="570" y="155" width="15" height="15" fill="#3498db" rx="2" ry="2"/>
  <text x="595" y="167" font-family="Arial, sans-serif" font-size="12" fill="#333">Residential</text>
  
  <rect x="570" y="175" width="15" height="15" fill="#e74c3c" rx="2" ry="2"/>
  <text x="595" y="187" font-family="Arial, sans-serif" font-size="12" fill="#333">Commercial</text>
  
  <rect x="570" y="195" width="15" height="15" fill="#2ecc71" rx="2" ry="2"/>
  <text x="595" y="207" font-family="Arial, sans-serif" font-size="12" fill="#333">HMO</text>
  
  <rect x="570" y="215" width="15" height="15" fill="#9b59b6" rx="2" ry="2"/>
  <text x="595" y="227" font-family="Arial, sans-serif" font-size="12" fill="#333">Office</text>
  
  <!-- Source -->
  <text x="400" y="380" font-family="Arial, sans-serif" font-size="12" fill="#666" text-anchor="middle">Source: Auction Insights Analysis of Leeds Auction Data (2025)</text>
</svg>