<svg width="800" height="450" xmlns="http://www.w3.org/2000/svg">
  <rect width="800" height="450" fill="#f8fafc"/>
  
  <!-- Chart Background -->
  <rect x="100" y="50" width="600" height="350" fill="#ffffff" stroke="#e2e8f0" stroke-width="2"/>
  
  <!-- Chart Title -->
  <text x="400" y="30" font-family="Arial, sans-serif" font-size="18" font-weight="bold" text-anchor="middle" fill="#1e293b">Year-on-Year Price Growth in London Boroughs (2024-2025)</text>
  
  <!-- Y-Axis -->
  <line x1="100" y1="50" x2="100" y2="400" stroke="#94a3b8" stroke-width="2"/>
  <text x="95" y="60" font-family="Arial, sans-serif" font-size="12" text-anchor="end" fill="#64748b">12%</text>
  <text x="95" y="110" font-family="Arial, sans-serif" font-size="12" text-anchor="end" fill="#64748b">10%</text>
  <text x="95" y="160" font-family="Arial, sans-serif" font-size="12" text-anchor="end" fill="#64748b">8%</text>
  <text x="95" y="210" font-family="Arial, sans-serif" font-size="12" text-anchor="end" fill="#64748b">6%</text>
  <text x="95" y="260" font-family="Arial, sans-serif" font-size="12" text-anchor="end" fill="#64748b">4%</text>
  <text x="95" y="310" font-family="Arial, sans-serif" font-size="12" text-anchor="end" fill="#64748b">2%</text>
  <text x="95" y="360" font-family="Arial, sans-serif" font-size="12" text-anchor="end" fill="#64748b">0%</text>
  <text x="95" y="400" font-family="Arial, sans-serif" font-size="12" text-anchor="end" fill="#64748b">-2%</text>
  
  <!-- X-Axis -->
  <line x1="100" y1="360" x2="700" y2="360" stroke="#94a3b8" stroke-width="2"/>
  
  <!-- Zero Line -->
  <line x1="100" y1="360" x2="700" y2="360" stroke="#94a3b8" stroke-width="1" stroke-dasharray="5,5"/>
  
  <!-- Grid Lines -->
  <line x1="100" y1="60" x2="700" y2="60" stroke="#e2e8f0" stroke-width="1" stroke-dasharray="5,5"/>
  <line x1="100" y1="110" x2="700" y2="110" stroke="#e2e8f0" stroke-width="1" stroke-dasharray="5,5"/>
  <line x1="100" y1="160" x2="700" y2="160" stroke="#e2e8f0" stroke-width="1" stroke-dasharray="5,5"/>
  <line x1="100" y1="210" x2="700" y2="210" stroke="#e2e8f0" stroke-width="1" stroke-dasharray="5,5"/>
  <line x1="100" y1="260" x2="700" y2="260" stroke="#e2e8f0" stroke-width="1" stroke-dasharray="5,5"/>
  <line x1="100" y1="310" x2="700" y2="310" stroke="#e2e8f0" stroke-width="1" stroke-dasharray="5,5"/>
  <line x1="100" y1="400" x2="700" y2="400" stroke="#e2e8f0" stroke-width="1" stroke-dasharray="5,5"/>
  
  <!-- Boroughs -->
  <text x="130" y="420" font-family="Arial, sans-serif" font-size="10" text-anchor="middle" transform="rotate(45, 130, 420)" fill="#64748b">Barking</text>
  <text x="170" y="420" font-family="Arial, sans-serif" font-size="10" text-anchor="middle" transform="rotate(45, 170, 420)" fill="#64748b">Bexley</text>
  <text x="210" y="420" font-family="Arial, sans-serif" font-size="10" text-anchor="middle" transform="rotate(45, 210, 420)" fill="#64748b">Croydon</text>
  <text x="250" y="420" font-family="Arial, sans-serif" font-size="10" text-anchor="middle" transform="rotate(45, 250, 420)" fill="#64748b">Hackney</text>
  <text x="290" y="420" font-family="Arial, sans-serif" font-size="10" text-anchor="middle" transform="rotate(45, 290, 420)" fill="#64748b">Southwark</text>
  <text x="330" y="420" font-family="Arial, sans-serif" font-size="10" text-anchor="middle" transform="rotate(45, 330, 420)" fill="#64748b">Waltham Forest</text>
  <text x="370" y="420" font-family="Arial, sans-serif" font-size="10" text-anchor="middle" transform="rotate(45, 370, 420)" fill="#64748b">Greenwich</text>
  <text x="410" y="420" font-family="Arial, sans-serif" font-size="10" text-anchor="middle" transform="rotate(45, 410, 420)" fill="#64748b">Lewisham</text>
  <text x="450" y="420" font-family="Arial, sans-serif" font-size="10" text-anchor="middle" transform="rotate(45, 450, 420)" fill="#64748b">Camden</text>
  <text x="490" y="420" font-family="Arial, sans-serif" font-size="10" text-anchor="middle" transform="rotate(45, 490, 420)" fill="#64748b">Westminster</text>
  <text x="530" y="420" font-family="Arial, sans-serif" font-size="10" text-anchor="middle" transform="rotate(45, 530, 420)" fill="#64748b">Kensington</text>
  <text x="570" y="420" font-family="Arial, sans-serif" font-size="10" text-anchor="middle" transform="rotate(45, 570, 420)" fill="#64748b">Hammersmith</text>
  <text x="610" y="420" font-family="Arial, sans-serif" font-size="10" text-anchor="middle" transform="rotate(45, 610, 420)" fill="#64748b">Newham</text>
  <text x="650" y="420" font-family="Arial, sans-serif" font-size="10" text-anchor="middle" transform="rotate(45, 650, 420)" fill="#64748b">Tower Hamlets</text>
  <text x="690" y="420" font-family="Arial, sans-serif" font-size="10" text-anchor="middle" transform="rotate(45, 690, 420)" fill="#64748b">Islington</text>
  
  <!-- Bars -->
  <!-- Outer London Boroughs (highlighted) -->
  <rect x="120" y="110" width="20" height="250" fill="#f59e0b" opacity="0.8"/>
  <rect x="160" y="160" width="20" height="200" fill="#f59e0b" opacity="0.8"/>
  <rect x="200" y="210" width="20" height="150" fill="#f59e0b" opacity="0.8"/>
  
  <!-- Other Boroughs -->
  <rect x="240" y="210" width="20" height="150" fill="#2563eb" opacity="0.8"/>
  <rect x="280" y="260" width="20" height="100" fill="#2563eb" opacity="0.8"/>
  <rect x="320" y="210" width="20" height="150" fill="#f59e0b" opacity="0.8"/>
  <rect x="360" y="210" width="20" height="150" fill="#f59e0b" opacity="0.8"/>
  <rect x="400" y="260" width="20" height="100" fill="#f59e0b" opacity="0.8"/>
  <rect x="440" y="310" width="20" height="50" fill="#2563eb" opacity="0.8"/>
  <rect x="480" y="310" width="20" height="50" fill="#2563eb" opacity="0.8"/>
  <rect x="520" y="380" width="20" height="-20" fill="#2563eb" opacity="0.8"/>
  <rect x="560" y="360" width="20" height="0" fill="#2563eb" opacity="0.8"/>
  <rect x="600" y="210" width="20" height="150" fill="#2563eb" opacity="0.8"/>
  <rect x="640" y="260" width="20" height="100" fill="#2563eb" opacity="0.8"/>
  <rect x="680" y="310" width="20" height="50" fill="#2563eb" opacity="0.8"/>
  
  <!-- Data Labels -->
  <text x="130" y="100" font-family="Arial, sans-serif" font-size="12" font-weight="bold" text-anchor="middle" fill="#1e293b">10.5%</text>
  <text x="170" y="150" font-family="Arial, sans-serif" font-size="12" font-weight="bold" text-anchor="middle" fill="#1e293b">8.4%</text>
  <text x="210" y="200" font-family="Arial, sans-serif" font-size="12" font-weight="bold" text-anchor="middle" fill="#1e293b">6.2%</text>
  <text x="250" y="200" font-family="Arial, sans-serif" font-size="12" font-weight="bold" text-anchor="middle" fill="#1e293b">6.1%</text>
  <text x="290" y="250" font-family="Arial, sans-serif" font-size="12" font-weight="bold" text-anchor="middle" fill="#1e293b">4.2%</text>
  <text x="330" y="200" font-family="Arial, sans-serif" font-size="12" font-weight="bold" text-anchor="middle" fill="#1e293b">6.3%</text>
  <text x="370" y="200" font-family="Arial, sans-serif" font-size="12" font-weight="bold" text-anchor="middle" fill="#1e293b">6.0%</text>
  <text x="410" y="250" font-family="Arial, sans-serif" font-size="12" font-weight="bold" text-anchor="middle" fill="#1e293b">4.1%</text>
  <text x="450" y="300" font-family="Arial, sans-serif" font-size="12" font-weight="bold" text-anchor="middle" fill="#1e293b">2.1%</text>
  <text x="490" y="300" font-family="Arial, sans-serif" font-size="12" font-weight="bold" text-anchor="middle" fill="#1e293b">2.0%</text>
  <text x="530" y="390" font-family="Arial, sans-serif" font-size="12" font-weight="bold" text-anchor="middle" fill="#1e293b">-0.8%</text>
  <text x="570" y="350" font-family="Arial, sans-serif" font-size="12" font-weight="bold" text-anchor="middle" fill="#1e293b">0.0%</text>
  <text x="610" y="200" font-family="Arial, sans-serif" font-size="12" font-weight="bold" text-anchor="middle" fill="#1e293b">6.2%</text>
  <text x="650" y="250" font-family="Arial, sans-serif" font-size="12" font-weight="bold" text-anchor="middle" fill="#1e293b">4.1%</text>
  <text x="690" y="300" font-family="Arial, sans-serif" font-size="12" font-weight="bold" text-anchor="middle" fill="#1e293b">2.0%</text>
  
  <!-- Legend -->
  <rect x="550" y="70" width="15" height="15" fill="#f59e0b" opacity="0.8"/>
  <text x="575" y="83" font-family="Arial, sans-serif" font-size="12" fill="#64748b">Outer London Hotspots</text>
  <rect x="550" y="95" width="15" height="15" fill="#2563eb" opacity="0.8"/>
  <text x="575" y="108" font-family="Arial, sans-serif" font-size="12" fill="#64748b">Other Boroughs</text>
  
  <!-- Source -->
  <text x="700" y="440" font-family="Arial, sans-serif" font-size="10" text-anchor="end" fill="#94a3b8">Source: Auction Insights Analysis, 2024-2025</text>
</svg>