<?xml version="1.0" encoding="UTF-8"?>
<svg width="800" height="450" viewBox="0 0 800 450" xmlns="http://www.w3.org/2000/svg">
  <!-- Background -->
  <defs>
    <linearGradient id="skyGradient" x1="0%" y1="0%" x2="0%" y2="100%">
      <stop offset="0%" stop-color="#1a3a5f"/>
      <stop offset="100%" stop-color="#2c5a8c"/>
    </linearGradient>
  </defs>
  <rect width="800" height="450" fill="url(#skyGradient)"/>
  
  <!-- Title -->
  <text x="400" y="50" font-family="Arial, sans-serif" font-size="28" font-weight="bold" fill="white" text-anchor="middle">Northern Powerhouse: Investment Opportunities</text>
  
  <!-- UK Map Outline -->
  <path d="M350,120 C340,130 330,150 335,170 C340,190 330,210 320,220 C310,230 300,250 310,270 C320,290 330,310 350,320 C370,330 390,340 410,330 C430,320 450,310 460,290 C470,270 480,250 470,230 C460,210 450,190 440,170 C430,150 420,130 400,120 C380,110 360,110 350,120 Z" fill="#2c5a8c" stroke="#fff" stroke-width="2"/>
  
  <!-- Northern Cities -->
  <!-- Manchester -->
  <circle cx="380" cy="220" r="8" fill="#e74c3c"/>
  <text x="380" y="245" font-family="Arial, sans-serif" font-size="14" fill="white" text-anchor="middle">Manchester</text>
  
  <!-- Leeds -->
  <circle cx="410" cy="200" r="8" fill="#e74c3c"/>
  <text x="410" y="185" font-family="Arial, sans-serif" font-size="14" fill="white" text-anchor="middle">Leeds</text>
  
  <!-- Liverpool -->
  <circle cx="360" cy="210" r="8" fill="#e74c3c"/>
  <text x="360" y="195" font-family="Arial, sans-serif" font-size="14" fill="white" text-anchor="middle">Liverpool</text>
  
  <!-- City Skylines -->
  <!-- Manchester Skyline -->
  <g transform="translate(150, 350)">
    <rect x="0" y="-120" width="20" height="120" fill="#34495e"/>
    <rect x="25" y="-80" width="15" height="80" fill="#34495e"/>
    <rect x="45" y="-150" width="25" height="150" fill="#34495e"/>
    <rect x="75" y="-100" width="20" height="100" fill="#34495e"/>
    <rect x="100" y="-130" width="30" height="130" fill="#34495e"/>
    <text x="65" y="-160" font-family="Arial, sans-serif" font-size="14" fill="white" text-anchor="middle">Manchester</text>
    <!-- Windows -->
    <g fill="#f1c40f">
      <rect x="5" y="-110" width="5" height="5"/>
      <rect x="10" y="-110" width="5" height="5"/>
      <rect x="5" y="-100" width="5" height="5"/>
      <rect x="10" y="-100" width="5" height="5"/>
      <rect x="5" y="-90" width="5" height="5"/>
      <rect x="10" y="-90" width="5" height="5"/>
      <rect x="5" y="-80" width="5" height="5"/>
      <rect x="10" y="-80" width="5" height="5"/>
      <rect x="5" y="-70" width="5" height="5"/>
      <rect x="10" y="-70" width="5" height="5"/>
      <rect x="5" y="-60" width="5" height="5"/>
      <rect x="10" y="-60" width="5" height="5"/>
      <rect x="5" y="-50" width="5" height="5"/>
      <rect x="10" y="-50" width="5" height="5"/>
      <rect x="5" y="-40" width="5" height="5"/>
      <rect x="10" y="-40" width="5" height="5"/>
      <rect x="5" y="-30" width="5" height="5"/>
      <rect x="10" y="-30" width="5" height="5"/>
      <rect x="5" y="-20" width="5" height="5"/>
      <rect x="10" y="-20" width="5" height="5"/>
      
      <rect x="30" y="-70" width="5" height="5"/>
      <rect x="30" y="-60" width="5" height="5"/>
      <rect x="30" y="-50" width="5" height="5"/>
      <rect x="30" y="-40" width="5" height="5"/>
      <rect x="30" y="-30" width="5" height="5"/>
      <rect x="30" y="-20" width="5" height="5"/>
      
      <rect x="50" y="-140" width="5" height="5"/>
      <rect x="60" y="-140" width="5" height="5"/>
      <rect x="50" y="-130" width="5" height="5"/>
      <rect x="60" y="-130" width="5" height="5"/>
      <rect x="50" y="-120" width="5" height="5"/>
      <rect x="60" y="-120" width="5" height="5"/>
      <rect x="50" y="-110" width="5" height="5"/>
      <rect x="60" y="-110" width="5" height="5"/>
      <rect x="50" y="-100" width="5" height="5"/>
      <rect x="60" y="-100" width="5" height="5"/>
      <rect x="50" y="-90" width="5" height="5"/>
      <rect x="60" y="-90" width="5" height="5"/>
      <rect x="50" y="-80" width="5" height="5"/>
      <rect x="60" y="-80" width="5" height="5"/>
      <rect x="50" y="-70" width="5" height="5"/>
      <rect x="60" y="-70" width="5" height="5"/>
      <rect x="50" y="-60" width="5" height="5"/>
      <rect x="60" y="-60" width="5" height="5"/>
      <rect x="50" y="-50" width="5" height="5"/>
      <rect x="60" y="-50" width="5" height="5"/>
      <rect x="50" y="-40" width="5" height="5"/>
      <rect x="60" y="-40" width="5" height="5"/>
      <rect x="50" y="-30" width="5" height="5"/>
      <rect x="60" y="-30" width="5" height="5"/>
      
      <rect x="80" y="-90" width="5" height="5"/>
      <rect x="85" y="-90" width="5" height="5"/>
      <rect x="80" y="-80" width="5" height="5"/>
      <rect x="85" y="-80" width="5" height="5"/>
      <rect x="80" y="-70" width="5" height="5"/>
      <rect x="85" y="-70" width="5" height="5"/>
      <rect x="80" y="-60" width="5" height="5"/>
      <rect x="85" y="-60" width="5" height="5"/>
      <rect x="80" y="-50" width="5" height="5"/>
      <rect x="85" y="-50" width="5" height="5"/>
      <rect x="80" y="-40" width="5" height="5"/>
      <rect x="85" y="-40" width="5" height="5"/>
      <rect x="80" y="-30" width="5" height="5"/>
      <rect x="85" y="-30" width="5" height="5"/>
      <rect x="80" y="-20" width="5" height="5"/>
      <rect x="85" y="-20" width="5" height="5"/>
      
      <rect x="105" y="-120" width="5" height="5"/>
      <rect x="115" y="-120" width="5" height="5"/>
      <rect x="105" y="-110" width="5" height="5"/>
      <rect x="115" y="-110" width="5" height="5"/>
      <rect x="105" y="-100" width="5" height="5"/>
      <rect x="115" y="-100" width="5" height="5"/>
      <rect x="105" y="-90" width="5" height="5"/>
      <rect x="115" y="-90" width="5" height="5"/>
      <rect x="105" y="-80" width="5" height="5"/>
      <rect x="115" y="-80" width="5" height="5"/>
      <rect x="105" y="-70" width="5" height="5"/>
      <rect x="115" y="-70" width="5" height="5"/>
      <rect x="105" y="-60" width="5" height="5"/>
      <rect x="115" y="-60" width="5" height="5"/>
      <rect x="105" y="-50" width="5" height="5"/>
      <rect x="115" y="-50" width="5" height="5"/>
      <rect x="105" y="-40" width="5" height="5"/>
      <rect x="115" y="-40" width="5" height="5"/>
      <rect x="105" y="-30" width="5" height="5"/>
      <rect x="115" y="-30" width="5" height="5"/>
    </g>
  </g>
  
  <!-- Leeds Skyline -->
  <g transform="translate(350, 350)">
    <rect x="0" y="-90" width="15" height="90" fill="#34495e"/>
    <rect x="20" y="-120" width="20" height="120" fill="#34495e"/>
    <rect x="45" y="-70" width="15" height="70" fill="#34495e"/>
    <rect x="65" y="-140" width="25" height="140" fill="#34495e"/>
    <rect x="95" y="-100" width="20" height="100" fill="#34495e"/>
    <text x="60" y="-150" font-family="Arial, sans-serif" font-size="14" fill="white" text-anchor="middle">Leeds</text>
    <!-- Windows -->
    <g fill="#f1c40f">
      <rect x="5" y="-80" width="5" height="5"/>
      <rect x="5" y="-70" width="5" height="5"/>
      <rect x="5" y="-60" width="5" height="5"/>
      <rect x="5" y="-50" width="5" height="5"/>
      <rect x="5" y="-40" width="5" height="5"/>
      <rect x="5" y="-30" width="5" height="5"/>
      <rect x="5" y="-20" width="5" height="5"/>
      
      <rect x="25" y="-110" width="5" height="5"/>
      <rect x="30" y="-110" width="5" height="5"/>
      <rect x="25" y="-100" width="5" height="5"/>
      <rect x="30" y="-100" width="5" height="5"/>
      <rect x="25" y="-90" width="5" height="5"/>
      <rect x="30" y="-90" width="5" height="5"/>
      <rect x="25" y="-80" width="5" height="5"/>
      <rect x="30" y="-80" width="5" height="5"/>
      <rect x="25" y="-70" width="5" height="5"/>
      <rect x="30" y="-70" width="5" height="5"/>
      <rect x="25" y="-60" width="5" height="5"/>
      <rect x="30" y="-60" width="5" height="5"/>
      <rect x="25" y="-50" width="5" height="5"/>
      <rect x="30" y="-50" width="5" height="5"/>
      <rect x="25" y="-40" width="5" height="5"/>
      <rect x="30" y="-40" width="5" height="5"/>
      <rect x="25" y="-30" width="5" height="5"/>
      <rect x="30" y="-30" width="5" height="5"/>
      <rect x="25" y="-20" width="5" height="5"/>
      <rect x="30" y="-20" width="5" height="5"/>
      
      <rect x="50" y="-60" width="5" height="5"/>
      <rect x="50" y="-50" width="5" height="5"/>
      <rect x="50" y="-40" width="5" height="5"/>
      <rect x="50" y="-30" width="5" height="5"/>
      <rect x="50" y="-20" width="5" height="5"/>
      
      <rect x="70" y="-130" width="5" height="5"/>
      <rect x="80" y="-130" width="5" height="5"/>
      <rect x="70" y="-120" width="5" height="5"/>
      <rect x="80" y="-120" width="5" height="5"/>
      <rect x="70" y="-110" width="5" height="5"/>
      <rect x="80" y="-110" width="5" height="5"/>
      <rect x="70" y="-100" width="5" height="5"/>
      <rect x="80" y="-100" width="5" height="5"/>
      <rect x="70" y="-90" width="5" height="5"/>
      <rect x="80" y="-90" width="5" height="5"/>
      <rect x="70" y="-80" width="5" height="5"/>
      <rect x="80" y="-80" width="5" height="5"/>
      <rect x="70" y="-70" width="5" height="5"/>
      <rect x="80" y="-70" width="5" height="5"/>
      <rect x="70" y="-60" width="5" height="5"/>
      <rect x="80" y="-60" width="5" height="5"/>
      <rect x="70" y="-50" width="5" height="5"/>
      <rect x="80" y="-50" width="5" height="5"/>
      <rect x="70" y="-40" width="5" height="5"/>
      <rect x="80" y="-40" width="5" height="5"/>
      <rect x="70" y="-30" width="5" height="5"/>
      <rect x="80" y="-30" width="5" height="5"/>
      
      <rect x="100" y="-90" width="5" height="5"/>
      <rect x="105" y="-90" width="5" height="5"/>
      <rect x="100" y="-80" width="5" height="5"/>
      <rect x="105" y="-80" width="5" height="5"/>
      <rect x="100" y="-70" width="5" height="5"/>
      <rect x="105" y="-70" width="5" height="5"/>
      <rect x="100" y="-60" width="5" height="5"/>
      <rect x="105" y="-60" width="5" height="5"/>
      <rect x="100" y="-50" width="5" height="5"/>
      <rect x="105" y="-50" width="5" height="5"/>
      <rect x="100" y="-40" width="5" height="5"/>
      <rect x="105" y="-40" width="5" height="5"/>
      <rect x="100" y="-30" width="5" height="5"/>
      <rect x="105" y="-30" width="5" height="5"/>
      <rect x="100" y="-20" width="5" height="5"/>
      <rect x="105" y="-20" width="5" height="5"/>
    </g>
  </g>
  
  <!-- Liverpool Skyline -->
  <g transform="translate(550, 350)">
    <rect x="0" y="-110" width="20" height="110" fill="#34495e"/>
    <rect x="25" y="-80" width="15" height="80" fill="#34495e"/>
    <rect x="45" y="-130" width="25" height="130" fill="#34495e"/>
    <rect x="75" y="-90" width="20" height="90" fill="#34495e"/>
    <rect x="100" y="-120" width="30" height="120" fill="#34495e"/>
    <text x="65" y="-140" font-family="Arial, sans-serif" font-size="14" fill="white" text-anchor="middle">Liverpool</text>
    <!-- Windows -->
    <g fill="#f1c40f">
      <rect x="5" y="-100" width="5" height="5"/>
      <rect x="10" y="-100" width="5" height="5"/>
      <rect x="5" y="-90" width="5" height="5"/>
      <rect x="10" y="-90" width="5" height="5"/>
      <rect x="5" y="-80" width="5" height="5"/>
      <rect x="10" y="-80" width="5" height="5"/>
      <rect x="5" y="-70" width="5" height="5"/>
      <rect x="10" y="-70" width="5" height="5"/>
      <rect x="5" y="-60" width="5" height="5"/>
      <rect x="10" y="-60" width="5" height="5"/>
      <rect x="5" y="-50" width="5" height="5"/>
      <rect x="10" y="-50" width="5" height="5"/>
      <rect x="5" y="-40" width="5" height="5"/>
      <rect x="10" y="-40" width="5" height="5"/>
      <rect x="5" y="-30" width="5" height="5"/>
      <rect x="10" y="-30" width="5" height="5"/>
      <rect x="5" y="-20" width="5" height="5"/>
      <rect x="10" y="-20" width="5" height="5"/>
      
      <rect x="30" y="-70" width="5" height="5"/>
      <rect x="30" y="-60" width="5" height="5"/>
      <rect x="30" y="-50" width="5" height="5"/>
      <rect x="30" y="-40" width="5" height="5"/>
      <rect x="30" y="-30" width="5" height="5"/>
      <rect x="30" y="-20" width="5" height="5"/>
      
      <rect x="50" y="-120" width="5" height="5"/>
      <rect x="60" y="-120" width="5" height="5"/>
      <rect x="50" y="-110" width="5" height="5"/>
      <rect x="60" y="-110" width="5" height="5"/>
      <rect x="50" y="-100" width="5" height="5"/>
      <rect x="60" y="-100" width="5" height="5"/>
      <rect x="50" y="-90" width="5" height="5"/>
      <rect x="60" y="-90" width="5" height="5"/>
      <rect x="50" y="-80" width="5" height="5"/>
      <rect x="60" y="-80" width="5" height="5"/>
      <rect x="50" y="-70" width="5" height="5"/>
      <rect x="60" y="-70" width="5" height="5"/>
      <rect x="50" y="-60" width="5" height="5"/>
      <rect x="60" y="-60" width="5" height="5"/>
      <rect x="50" y="-50" width="5" height="5"/>
      <rect x="60" y="-50" width="5" height="5"/>
      <rect x="50" y="-40" width="5" height="5"/>
      <rect x="60" y="-40" width="5" height="5"/>
      <rect x="50" y="-30" width="5" height="5"/>
      <rect x="60" y="-30" width="5" height="5"/>
      
      <rect x="80" y="-80" width="5" height="5"/>
      <rect x="85" y="-80" width="5" height="5"/>
      <rect x="80" y="-70" width="5" height="5"/>
      <rect x="85" y="-70" width="5" height="5"/>
      <rect x="80" y="-60" width="5" height="5"/>
      <rect x="85" y="-60" width="5" height="5"/>
      <rect x="80" y="-50" width="5" height="5"/>
      <rect x="85" y="-50" width="5" height="5"/>
      <rect x="80" y="-40" width="5" height="5"/>
      <rect x="85" y="-40" width="5" height="5"/>
      <rect x="80" y="-30" width="5" height="5"/>
      <rect x="85" y="-30" width="5" height="5"/>
      <rect x="80" y="-20" width="5" height="5"/>
      <rect x="85" y="-20" width="5" height="5"/>
      
      <rect x="105" y="-110" width="5" height="5"/>
      <rect x="115" y="-110" width="5" height="5"/>
      <rect x="105" y="-100" width="5" height="5"/>
      <rect x="115" y="-100" width="5" height="5"/>
      <rect x="105" y="-90" width="5" height="5"/>
      <rect x="115" y="-90" width="5" height="5"/>
      <rect x="105" y="-80" width="5" height="5"/>
      <rect x="115" y="-80" width="5" height="5"/>
      <rect x="105" y="-70" width="5" height="5"/>
      <rect x="115" y="-70" width="5" height="5"/>
      <rect x="105" y="-60" width="5" height="5"/>
      <rect x="115" y="-60" width="5" height="5"/>
      <rect x="105" y="-50" width="5" height="5"/>
      <rect x="115" y="-50" width="5" height="5"/>
      <rect x="105" y="-40" width="5" height="5"/>
      <rect x="115" y="-40" width="5" height="5"/>
      <rect x="105" y="-30" width="5" height="5"/>
      <rect x="115" y="-30" width="5" height="5"/>
    </g>
  </g>
  
  <!-- Data Points -->
  <g transform="translate(50, 100)">
    <text x="0" y="0" font-family="Arial, sans-serif" font-size="16" font-weight="bold" fill="white">Key Investment Metrics</text>
    
    <text x="0" y="30" font-family="Arial, sans-serif" font-size="14" fill="white">Manchester:</text>
    <text x="20" y="50" font-family="Arial, sans-serif" font-size="12" fill="white">• Average Yield: 6.0-7.5%</text>
    <text x="20" y="70" font-family="Arial, sans-serif" font-size="12" fill="white">• Capital Growth: 7.8% (3yr avg)</text>
    <text x="20" y="90" font-family="Arial, sans-serif" font-size="12" fill="white">• Auction Success Rate: 78-82%</text>
    
    <text x="0" y="120" font-family="Arial, sans-serif" font-size="14" fill="white">Leeds:</text>
    <text x="20" y="140" font-family="Arial, sans-serif" font-size="12" fill="white">• Average Yield: 6.5-8.5%</text>
    <text x="20" y="160" font-family="Arial, sans-serif" font-size="12" fill="white">• Capital Growth: 7.2% (3yr avg)</text>
    <text x="20" y="180" font-family="Arial, sans-serif" font-size="12" fill="white">• Commercial Lots: 42% of sales</text>
    
    <text x="0" y="210" font-family="Arial, sans-serif" font-size="14" fill="white">Liverpool:</text>
    <text x="20" y="230" font-family="Arial, sans-serif" font-size="12" fill="white">• Average Yield: 7.0-12.0%</text>
    <text x="20" y="250" font-family="Arial, sans-serif" font-size="12" fill="white">• Capital Growth: 6.8% (3yr avg)</text>
    <text x="20" y="270" font-family="Arial, sans-serif" font-size="12" fill="white">• Entry Price: £110,000 (avg)</text>
  </g>
  
  <!-- Decorative Elements -->
  <g fill="#e74c3c" opacity="0.7">
    <circle cx="700" cy="80" r="30"/>
    <circle cx="730" cy="120" r="20"/>
    <circle cx="690" cy="130" r="15"/>
  </g>
  
  <g fill="#3498db" opacity="0.5">
    <circle cx="100" cy="380" r="25"/>
    <circle cx="70" cy="350" r="15"/>
    <circle cx="120" cy="340" r="10"/>
  </g>
  
  <!-- Bottom Banner -->
  <rect x="0" y="400" width="800" height="50" fill="#e74c3c" opacity="0.9"/>
  <text x="400" y="430" font-family="Arial, sans-serif" font-size="18" font-weight="bold" fill="white" text-anchor="middle">Auction Insights: Data-Driven Property Investment</text>
</svg>