<?xml version="1.0" encoding="UTF-8"?>
<svg width="800" height="400" viewBox="0 0 800 400" xmlns="http://www.w3.org/2000/svg">
  <!-- Background -->
  <rect width="800" height="400" fill="#f8f9fa"/>
  
  <!-- Title -->
  <text x="400" y="40" font-family="Arial, sans-serif" font-size="24" font-weight="bold" fill="#333" text-anchor="middle">Auction Property Tax Considerations</text>
  
  <!-- House with Tax Elements -->
  <rect x="300" y="100" width="200" height="150" fill="#fff" stroke="#333" stroke-width="3"/>
  <polygon points="300,100 400,70 500,100" fill="#e74c3c" stroke="#333" stroke-width="3"/>
  <rect x="380" y="180" width="40" height="70" fill="#3498db" stroke="#333" stroke-width="2"/>
  <circle cx="410" cy="215" r="3" fill="#333"/>
  
  <!-- Windows -->
  <rect x="330" y="130" width="40" height="40" fill="#f1c40f" stroke="#333" stroke-width="2"/>
  <line x1="350" y1="130" x2="350" y2="170" stroke="#333" stroke-width="2"/>
  <line x1="330" y1="150" x2="370" y2="150" stroke="#333" stroke-width="2"/>
  
  <rect x="430" y="130" width="40" height="40" fill="#f1c40f" stroke="#333" stroke-width="2"/>
  <line x1="450" y1="130" x2="450" y2="170" stroke="#333" stroke-width="2"/>
  <line x1="430" y1="150" x2="470" y2="150" stroke="#333" stroke-width="2"/>
  
  <!-- Tax Form -->
  <rect x="550" y="120" width="120" height="160" fill="#ecf0f1" stroke="#333" stroke-width="2"/>
  <text x="610" y="145" font-family="Arial, sans-serif" font-size="16" font-weight="bold" fill="#333" text-anchor="middle">TAX</text>
  <text x="610" y="165" font-family="Arial, sans-serif" font-size="16" font-weight="bold" fill="#333" text-anchor="middle">RETURN</text>
  <line x1="570" y1="180" x2="650" y2="180" stroke="#333" stroke-width="1"/>
  <line x1="570" y1="200" x2="650" y2="200" stroke="#333" stroke-width="1"/>
  <line x1="570" y1="220" x2="650" y2="220" stroke="#333" stroke-width="1"/>
  <line x1="570" y1="240" x2="650" y2="240" stroke="#333" stroke-width="1"/>
  <line x1="570" y1="260" x2="650" y2="260" stroke="#333" stroke-width="1"/>
  
  <!-- Calculator -->
  <rect x="130" y="120" width="100" height="160" fill="#34495e" stroke="#333" stroke-width="2" rx="5" ry="5"/>
  <rect x="140" y="130" width="80" height="30" fill="#ecf0f1" stroke="#333" stroke-width="1"/>
  <text x="180" y="152" font-family="Arial, sans-serif" font-size="16" fill="#333" text-anchor="middle">£12,500</text>
  
  <!-- Calculator Buttons -->
  <rect x="145" y="170" width="20" height="20" fill="#ecf0f1" stroke="#333" stroke-width="1" rx="2" ry="2"/>
  <text x="155" y="185" font-family="Arial, sans-serif" font-size="14" fill="#333" text-anchor="middle">7</text>
  
  <rect x="175" y="170" width="20" height="20" fill="#ecf0f1" stroke="#333" stroke-width="1" rx="2" ry="2"/>
  <text x="185" y="185" font-family="Arial, sans-serif" font-size="14" fill="#333" text-anchor="middle">8</text>
  
  <rect x="205" y="170" width="20" height="20" fill="#ecf0f1" stroke="#333" stroke-width="1" rx="2" ry="2"/>
  <text x="215" y="185" font-family="Arial, sans-serif" font-size="14" fill="#333" text-anchor="middle">9</text>
  
  <rect x="145" y="200" width="20" height="20" fill="#ecf0f1" stroke="#333" stroke-width="1" rx="2" ry="2"/>
  <text x="155" y="215" font-family="Arial, sans-serif" font-size="14" fill="#333" text-anchor="middle">4</text>
  
  <rect x="175" y="200" width="20" height="20" fill="#ecf0f1" stroke="#333" stroke-width="1" rx="2" ry="2"/>
  <text x="185" y="215" font-family="Arial, sans-serif" font-size="14" fill="#333" text-anchor="middle">5</text>
  
  <rect x="205" y="200" width="20" height="20" fill="#ecf0f1" stroke="#333" stroke-width="1" rx="2" ry="2"/>
  <text x="215" y="215" font-family="Arial, sans-serif" font-size="14" fill="#333" text-anchor="middle">6</text>
  
  <rect x="145" y="230" width="20" height="20" fill="#ecf0f1" stroke="#333" stroke-width="1" rx="2" ry="2"/>
  <text x="155" y="245" font-family="Arial, sans-serif" font-size="14" fill="#333" text-anchor="middle">1</text>
  
  <rect x="175" y="230" width="20" height="20" fill="#ecf0f1" stroke="#333" stroke-width="1" rx="2" ry="2"/>
  <text x="185" y="245" font-family="Arial, sans-serif" font-size="14" fill="#333" text-anchor="middle">2</text>
  
  <rect x="205" y="230" width="20" height="20" fill="#ecf0f1" stroke="#333" stroke-width="1" rx="2" ry="2"/>
  <text x="215" y="245" font-family="Arial, sans-serif" font-size="14" fill="#333" text-anchor="middle">3</text>
  
  <rect x="145" y="260" width="50" height="20" fill="#ecf0f1" stroke="#333" stroke-width="1" rx="2" ry="2"/>
  <text x="170" y="275" font-family="Arial, sans-serif" font-size="14" fill="#333" text-anchor="middle">0</text>
  
  <rect x="205" y="260" width="20" height="20" fill="#e74c3c" stroke="#333" stroke-width="1" rx="2" ry="2"/>
  <text x="215" y="275" font-family="Arial, sans-serif" font-size="14" fill="white" text-anchor="middle">=</text>
  
  <!-- Pound Signs -->
  <text x="400" y="300" font-family="Arial, sans-serif" font-size="60" font-weight="bold" fill="#27ae60">£</text>
  
  <!-- Tax Types -->
  <rect x="100" y="320" width="120" height="60" fill="#3498db" rx="10" ry="10"/>
  <text x="160" y="345" font-family="Arial, sans-serif" font-size="14" font-weight="bold" fill="white" text-anchor="middle">Stamp Duty</text>
  <text x="160" y="365" font-family="Arial, sans-serif" font-size="14" font-weight="bold" fill="white" text-anchor="middle">Land Tax</text>
  
  <rect x="240" y="320" width="120" height="60" fill="#e74c3c" rx="10" ry="10"/>
  <text x="300" y="345" font-family="Arial, sans-serif" font-size="14" font-weight="bold" fill="white" text-anchor="middle">Capital</text>
  <text x="300" y="365" font-family="Arial, sans-serif" font-size="14" font-weight="bold" fill="white" text-anchor="middle">Gains Tax</text>
  
  <rect x="380" y="320" width="120" height="60" fill="#f1c40f" rx="10" ry="10"/>
  <text x="440" y="345" font-family="Arial, sans-serif" font-size="14" font-weight="bold" fill="#333" text-anchor="middle">Income</text>
  <text x="440" y="365" font-family="Arial, sans-serif" font-size="14" font-weight="bold" fill="#333" text-anchor="middle">Tax</text>
  
  <rect x="520" y="320" width="120" height="60" fill="#9b59b6" rx="10" ry="10"/>
  <text x="580" y="345" font-family="Arial, sans-serif" font-size="14" font-weight="bold" fill="white" text-anchor="middle">Value Added</text>
  <text x="580" y="365" font-family="Arial, sans-serif" font-size="14" font-weight="bold" fill="white" text-anchor="middle">Tax (VAT)</text>
  
  <!-- Connecting Lines -->
  <line x1="160" y1="320" x2="180" y2="250" stroke="#3498db" stroke-width="2" stroke-dasharray="5,3"/>
  <line x1="300" y1="320" x2="350" y2="250" stroke="#e74c3c" stroke-width="2" stroke-dasharray="5,3"/>
  <line x1="440" y1="320" x2="450" y2="250" stroke="#f1c40f" stroke-width="2" stroke-dasharray="5,3"/>
  <line x1="580" y1="320" x2="610" y2="250" stroke="#9b59b6" stroke-width="2" stroke-dasharray="5,3"/>
</svg>