<?xml version="1.0" encoding="UTF-8"?>
<svg width="800" height="450" viewBox="0 0 800 450" xmlns="http://www.w3.org/2000/svg">
  <!-- Background -->
  <defs>
    <linearGradient id="bgGradient" x1="0%" y1="0%" x2="0%" y2="100%">
      <stop offset="0%" stop-color="#2c3e50"/>
      <stop offset="100%" stop-color="#34495e"/>
    </linearGradient>
  </defs>
  <rect width="800" height="450" fill="url(#bgGradient)"/>
  
  <!-- Title -->
  <text x="400" y="50" font-family="Arial, sans-serif" font-size="28" font-weight="bold" fill="white" text-anchor="middle">Auction Success Stories</text>
  <text x="400" y="80" font-family="Arial, sans-serif" font-size="18" fill="#ecf0f1" text-anchor="middle">Real-World Case Studies of Exceptional Value</text>
  
  <!-- Success Icons -->
  <!-- Victorian Terrace -->
  <g transform="translate(200, 180)">
    <rect x="-80" y="-60" width="160" height="120" rx="10" ry="10" fill="#e74c3c" opacity="0.9"/>
    
    <!-- House Icon -->
    <path d="M-40,-20 L0,-50 L40,-20 L40,30 L-40,30 Z" fill="#ecf0f1"/>
    <rect x="-10" y="0" width="20" height="30" fill="#e74c3c"/>
    <rect x="-30" y="-10" width="15" height="15" fill="#ecf0f1"/>
    <rect x="15" y="-10" width="15" height="15" fill="#ecf0f1"/>
    
    <!-- Text -->
    <text x="0" y="60" font-family="Arial, sans-serif" font-size="14" font-weight="bold" fill="white" text-anchor="middle">Victorian Terrace</text>
    <text x="0" y="80" font-family="Arial, sans-serif" font-size="12" fill="white" text-anchor="middle">27.7% ROI</text>
  </g>
  
  <!-- Commercial Conversion -->
  <g transform="translate(400, 180)">
    <rect x="-80" y="-60" width="160" height="120" rx="10" ry="10" fill="#3498db" opacity="0.9"/>
    
    <!-- Building Icon -->
    <rect x="-40" y="-40" width="80" height="70" fill="#ecf0f1"/>
    <rect x="-35" y="-35" width="15" height="15" fill="#3498db"/>
    <rect x="-15" y="-35" width="15" height="15" fill="#3498db"/>
    <rect x="5" y="-35" width="15" height="15" fill="#3498db"/>
    <rect x="25" y="-35" width="15" height="15" fill="#3498db"/>
    <rect x="-35" y="-15" width="15" height="15" fill="#3498db"/>
    <rect x="-15" y="-15" width="15" height="15" fill="#3498db"/>
    <rect x="5" y="-15" width="15" height="15" fill="#3498db"/>
    <rect x="25" y="-15" width="15" height="15" fill="#3498db"/>
    <rect x="-35" y="5" width="15" height="15" fill="#3498db"/>
    <rect x="-15" y="5" width="15" height="15" fill="#3498db"/>
    <rect x="5" y="5" width="15" height="15" fill="#3498db"/>
    <rect x="25" y="5" width="15" height="15" fill="#3498db"/>
    
    <!-- Text -->
    <text x="0" y="60" font-family="Arial, sans-serif" font-size="14" font-weight="bold" fill="white" text-anchor="middle">Commercial Conversion</text>
    <text x="0" y="80" font-family="Arial, sans-serif" font-size="12" fill="white" text-anchor="middle">35% ROI</text>
  </g>
  
  <!-- Probate Property -->
  <g transform="translate(600, 180)">
    <rect x="-80" y="-60" width="160" height="120" rx="10" ry="10" fill="#2ecc71" opacity="0.9"/>
    
    <!-- House Icon -->
    <path d="M-30,-30 L0,-50 L30,-30 L30,30 L-30,30 Z" fill="#ecf0f1"/>
    <rect x="-10" y="0" width="20" height="30" fill="#2ecc71"/>
    <rect x="-20" y="-15" width="10" height="10" fill="#ecf0f1"/>
    <rect x="10" y="-15" width="10" height="10" fill="#ecf0f1"/>
    
    <!-- Document Icon -->
    <g transform="translate(-50, 0)">
      <rect x="-15" y="-20" width="30" height="40" fill="#ecf0f1"/>
      <line x1="-10" y1="-10" x2="10" y2="-10" stroke="#2ecc71" stroke-width="2"/>
      <line x1="-10" y1="0" x2="10" y2="0" stroke="#2ecc71" stroke-width="2"/>
      <line x1="-10" y1="10" x2="5" y2="10" stroke="#2ecc71" stroke-width="2"/>
    </g>
    
    <!-- Text -->
    <text x="0" y="60" font-family="Arial, sans-serif" font-size="14" font-weight="bold" fill="white" text-anchor="middle">Probate Property</text>
    <text x="0" y="80" font-family="Arial, sans-serif" font-size="12" fill="white" text-anchor="middle">32.4% ROI</text>
  </g>
  
  <!-- Portfolio Builder -->
  <g transform="translate(400, 320)">
    <rect x="-80" y="-60" width="160" height="120" rx="10" ry="10" fill="#9b59b6" opacity="0.9"/>
    
    <!-- Multiple Houses Icon -->
    <g transform="translate(-40, -20) scale(0.6)">
      <path d="M-30,-30 L0,-50 L30,-30 L30,30 L-30,30 Z" fill="#ecf0f1"/>
      <rect x="-10" y="0" width="20" height="30" fill="#9b59b6"/>
    </g>
    
    <g transform="translate(0, -20) scale(0.6)">
      <path d="M-30,-30 L0,-50 L30,-30 L30,30 L-30,30 Z" fill="#ecf0f1"/>
      <rect x="-10" y="0" width="20" height="30" fill="#9b59b6"/>
    </g>
    
    <g transform="translate(40, -20) scale(0.6)">
      <path d="M-30,-30 L0,-50 L30,-30 L30,30 L-30,30 Z" fill="#ecf0f1"/>
      <rect x="-10" y="0" width="20" height="30" fill="#9b59b6"/>
    </g>
    
    <g transform="translate(-20, 20) scale(0.6)">
      <path d="M-30,-30 L0,-50 L30,-30 L30,30 L-30,30 Z" fill="#ecf0f1"/>
      <rect x="-10" y="0" width="20" height="30" fill="#9b59b6"/>
    </g>
    
    <g transform="translate(20, 20) scale(0.6)">
      <path d="M-30,-30 L0,-50 L30,-30 L30,30 L-30,30 Z" fill="#ecf0f1"/>
      <rect x="-10" y="0" width="20" height="30" fill="#9b59b6"/>
    </g>
    
    <!-- Text -->
    <text x="0" y="60" font-family="Arial, sans-serif" font-size="14" font-weight="bold" fill="white" text-anchor="middle">Portfolio Builder</text>
    <text x="0" y="80" font-family="Arial, sans-serif" font-size="12" fill="white" text-anchor="middle">37.3% ROI</text>
  </g>
  
  <!-- Success Factors -->
  <g transform="translate(100, 380)">
    <circle cx="0" cy="0" r="15" fill="#e74c3c"/>
    <text x="0" y="5" font-family="Arial, sans-serif" font-size="14" font-weight="bold" fill="white" text-anchor="middle">1</text>
    <text x="30" y="5" font-family="Arial, sans-serif" font-size="12" fill="white">Research</text>
  </g>
  
  <g transform="translate(200, 380)">
    <circle cx="0" cy="0" r="15" fill="#3498db"/>
    <text x="0" y="5" font-family="Arial, sans-serif" font-size="14" font-weight="bold" fill="white" text-anchor="middle">2</text>
    <text x="30" y="5" font-family="Arial, sans-serif" font-size="12" fill="white">Financial Discipline</text>
  </g>
  
  <g transform="translate(350, 380)">
    <circle cx="0" cy="0" r="15" fill="#2ecc71"/>
    <text x="0" y="5" font-family="Arial, sans-serif" font-size="14" font-weight="bold" fill="white" text-anchor="middle">3</text>
    <text x="30" y="5" font-family="Arial, sans-serif" font-size="12" fill="white">Value-Adding Strategy</text>
  </g>
  
  <g transform="translate(500, 380)">
    <circle cx="0" cy="0" r="15" fill="#f39c12"/>
    <text x="0" y="5" font-family="Arial, sans-serif" font-size="14" font-weight="bold" fill="white" text-anchor="middle">4</text>
    <text x="30" y="5" font-family="Arial, sans-serif" font-size="12" fill="white">Disciplined Bidding</text>
  </g>
  
  <g transform="translate(650, 380)">
    <circle cx="0" cy="0" r="15" fill="#9b59b6"/>
    <text x="0" y="5" font-family="Arial, sans-serif" font-size="14" font-weight="bold" fill="white" text-anchor="middle">5</text>
    <text x="30" y="5" font-family="Arial, sans-serif" font-size="12" fill="white">Efficient Execution</text>
  </g>
  
  <!-- Decorative Elements -->
  <g fill="#f39c12" opacity="0.5">
    <circle cx="700" cy="80" r="20"/>
    <circle cx="730" cy="100" r="15"/>
    <circle cx="710" cy="120" r="10"/>
  </g>
  
  <g fill="#9b59b6" opacity="0.3">
    <circle cx="100" cy="80" r="15"/>
    <circle cx="70" cy="100" r="10"/>
    <circle cx="90" cy="120" r="20"/>
  </g>
  
  <!-- Bottom Banner -->
  <rect x="0" y="410" width="800" height="40" fill="#e74c3c" opacity="0.9"/>
  <text x="400" y="435" font-family="Arial, sans-serif" font-size="16" font-weight="bold" fill="white" text-anchor="middle">Auction Insights: Systematic Approaches to Auction Success</text>
</svg>