<?xml version="1.0" encoding="UTF-8"?>
<svg width="300" height="200" viewBox="0 0 300 200" xmlns="http://www.w3.org/2000/svg">
  <!-- Background -->
  <rect width="300" height="200" fill="#f8f9fa"/>
  
  <!-- Title -->
  <rect width="300" height="40" fill="#3498db"/>
  <text x="150" y="25" font-family="Arial, sans-serif" font-size="16" font-weight="bold" fill="white" text-anchor="middle">Virtual Property Auctions</text>
  
  <!-- Laptop -->
  <g transform="translate(50, 70) scale(0.6)">
    <!-- Laptop Base -->
    <rect x="0" y="120" width="250" height="15" rx="2" fill="#95a5a6"/>
    <path d="M10 120 L240 120 L250 135 L0 135 Z" fill="#7f8c8d"/>
    
    <!-- Laptop Screen -->
    <rect x="20" y="0" width="210" height="120" rx="5" fill="#34495e"/>
    <rect x="25" y="5" width="200" height="110" rx="2" fill="#3498db"/>
    
    <!-- Screen Content -->
    <rect x="35" y="15" width="180" height="20" rx="2" fill="#2980b9"/>
    <text x="125" y="30" font-family="Arial, sans-serif" font-size="12" fill="white" text-anchor="middle">LIVE AUCTION</text>
    
    <!-- Property Image -->
    <rect x="35" y="45" width="110" height="60" rx="2" fill="#e74c3c"/>
    <rect x="40" y="50" width="100" height="50" fill="#c0392b"/>
    
    <!-- Bidding Area -->
    <rect x="155" y="45" width="60" height="60" rx="2" fill="#2ecc71"/>
    <text x="185" y="65" font-family="Arial, sans-serif" font-size="10" fill="white" text-anchor="middle">CURRENT BID</text>
    <text x="185" y="85" font-family="Arial, sans-serif" font-size="14" font-weight="bold" fill="white" text-anchor="middle">£275,000</text>
    <rect x="160" y="90" width="50" height="10" rx="2" fill="#27ae60"/>
    <text x="185" y="98" font-family="Arial, sans-serif" font-size="8" fill="white" text-anchor="middle">BID NOW</text>
  </g>
  
  <!-- Mobile Device -->
  <g transform="translate(200, 80) scale(0.6)">
    <!-- Phone Body -->
    <rect x="0" y="0" width="80" height="140" rx="10" fill="#34495e"/>
    <rect x="5" y="10" width="70" height="120" rx="5" fill="#3498db"/>
    
    <!-- Phone Content -->
    <rect x="10" y="15" width="60" height="10" rx="2" fill="#2980b9"/>
    <text x="40" y="23" font-family="Arial, sans-serif" font-size="6" fill="white" text-anchor="middle">AUCTION APP</text>
    
    <!-- Property Image -->
    <rect x="10" y="30" width="60" height="40" rx="2" fill="#e74c3c"/>
    <rect x="12" y="32" width="56" height="36" fill="#c0392b"/>
    
    <!-- Bidding Area -->
    <rect x="10" y="75" width="60" height="25" rx="2" fill="#2ecc71"/>
    <text x="40" y="85" font-family="Arial, sans-serif" font-size="6" fill="white" text-anchor="middle">CURRENT BID</text>
    <text x="40" y="95" font-family="Arial, sans-serif" font-size="8" font-weight="bold" fill="white" text-anchor="middle">£275,000</text>
    
    <!-- Bid Button -->
    <rect x="10" y="105" width="60" height="15" rx="2" fill="#27ae60"/>
    <text x="40" y="115" font-family="Arial, sans-serif" font-size="8" fill="white" text-anchor="middle">BID NOW</text>
  </g>
  
  <!-- Connecting Lines -->
  <path d="M150 100 C170 90, 180 90, 200 100" stroke="#3498db" stroke-width="1" stroke-dasharray="3,2" fill="none"/>
  
  <!-- Bottom Text -->
  <text x="150" y="180" font-family="Arial, sans-serif" font-size="12" fill="#7f8c8d" text-anchor="middle">Bid from anywhere, anytime</text>
</svg>